<?xml version="1.0" standalone="no"?>
<!DOCTYPE svg PUBLIC "-//W3C//DTD SVG 1.1//EN" "http://www.w3.org/Graphics/SVG/1.1/DTD/svg11.dtd" >
<svg xmlns="http://www.w3.org/2000/svg">
<metadata>
Created by FontForge 20120731 at Thu Mar  3 21:08:24 2016
 By Ads
</metadata>
<defs>
<font id="iconfont" horiz-adv-x="1024" >
  <font-face 
    font-family="iconfont"
    font-weight="500"
    font-stretch="normal"
    units-per-em="1024"
    panose-1="2 0 6 3 0 0 0 0 0 0"
    ascent="896"
    descent="-128"
    x-height="792"
    bbox="-0.030303 -128 1067 896.043"
    underline-thickness="50"
    underline-position="-100"
    unicode-range="U+0078-E660"
  />
<missing-glyph horiz-adv-x="374" 
d="M34 0v682h272v-682h-272zM68 34h204v614h-204v-614z" />
    <glyph glyph-name=".notdef" horiz-adv-x="374" 
d="M34 0v682h272v-682h-272zM68 34h204v614h-204v-614z" />
    <glyph glyph-name=".null" horiz-adv-x="0" 
 />
    <glyph glyph-name="nonmarkingreturn" horiz-adv-x="341" 
 />
    <glyph glyph-name="x" unicode="x" horiz-adv-x="1001" 
d="M281 543q-27 -1 -53 -1h-83q-18 0 -36.5 -6t-32.5 -18.5t-23 -32t-9 -45.5v-76h912v41q0 16 -0.5 30t-0.5 18q0 13 -5 29t-17 29.5t-31.5 22.5t-49.5 9h-133v-97h-438v97zM955 310v-52q0 -23 0.5 -52t0.5 -58t-10.5 -47.5t-26 -30t-33 -16t-31.5 -4.5q-14 -1 -29.5 -0.5
t-29.5 0.5h-32l-45 128h-439l-44 -128h-29h-34q-20 0 -45 1q-25 0 -41 9.5t-25.5 23t-13.5 29.5t-4 30v167h911zM163 247q-12 0 -21 -8.5t-9 -21.5t9 -21.5t21 -8.5q13 0 22 8.5t9 21.5t-9 21.5t-22 8.5zM316 123q-8 -26 -14 -48q-5 -19 -10.5 -37t-7.5 -25t-3 -15t1 -14.5
t9.5 -10.5t21.5 -4h37h67h81h80h64h36q23 0 34 12t2 38q-5 13 -9.5 30.5t-9.5 34.5q-5 19 -11 39h-368zM336 498v228q0 11 2.5 23t10 21.5t20.5 15.5t34 6h188q31 0 51.5 -14.5t20.5 -52.5v-227h-327z" />
    <glyph glyph-name="uniE600" unicode="&#xe600;" 
d="M747 -101q-4 0 -7.5 1t-7 3t-6.5 5l-455 455q-3 3 -5 6.5t-3 7t-1 7.5t1 7.5t3 7t5 6.5l455 455q3 3 6.5 5t7 3t7.5 1t7.5 -1t7 -3t6.5 -5q8 -8 8 -20t-8 -21l-436 -435l436 -435q8 -9 8 -21t-8 -20q-5 -5 -10 -7t-11 -2z" />
    <glyph glyph-name="uniE601" unicode="&#xe601;" 
d="M1004 612q0 -6 -2 -11.5t-7 -9.5l-455 -456q-9 -8 -21 -8t-21 8l-455 456q-9 9 -9 21t9 21q2 1 4 2.5t4 2.5t4.5 2t4.5 1h6q2 0 4 -1l6 -2q2 -1 4 -2.5t4 -2.5l435 -436l435 436q4 4 9.5 6t11 2t11 -2t10 -6.5t6.5 -9.5t2 -11z" />
    <glyph glyph-name="uniE602" unicode="&#xe602;" 
d="M291 869q12 0 21 -9l456 -455q8 -9 8 -21t-8 -21l-456 -455q-3 -3 -6.5 -5t-7 -3t-7.5 -1t-7.5 1t-7 3t-5.5 5q-5 4 -7 9.5t-2 11t2 11t7 9.5l435 435l-435 435q-5 4 -7 9.5t-2 11t2 11t7 9.5q1 2 3 3.5t4 2.5t4 1.5t4.5 1t4.5 0.5z" />
    <glyph glyph-name="uniE603" unicode="&#xe603;" 
d="M34 156q0 4 1 7.5t3 7t5 6.5l455 456q9 8 21 8t21 -8l455 -456q9 -9 9 -21t-8.5 -20.5t-20.5 -8.5t-21 8l-435 436l-435 -436q-9 -8 -21 -8t-20.5 8.5t-8.5 20.5z" />
    <glyph glyph-name="uniE604" unicode="&#xe604;" 
d="M515 -124q-103 0 -197 40q-91 38 -161 108t-108 161q-40 94 -40 197t40 197q19 45 46.5 85t61.5 75q70 70 161 109q94 39 197 39q51 0 100.5 -10t95.5 -29q23 -10 44.5 -21.5t41.5 -25t39 -29t36 -33.5q35 -35 62 -75t46 -85q40 -94 40 -197t-40 -197q-38 -91 -108 -161
t-161 -108q-93 -40 -196 -40zM514.5 837q-92.5 0 -176.5 -36t-145 -97t-97.5 -145.5t-36.5 -177t36.5 -176.5t97.5 -145t145 -97.5t177 -36.5q62 0 121 16.5t108.5 46t92 71.5t71.5 92t45.5 109t16.5 121q0 92 -36 176.5t-97 145.5t-145.5 97t-177 36zM754.5 103
q-10.5 0 -17.5 7l-497 501q-4 5 -6 11.5t0 13t7 11.5q2 2 5 3.5t6 2.5t6 1t6.5 -1t6 -2.5t5.5 -4.5l496 -500q8 -8 8 -18.5t-7.5 -17.5t-18 -7zM258 103q-10 0 -17.5 7t-7.5 17.5t7 18.5l497 500q7 8 17.5 8t18 -7.5t7.5 -17.5t-8 -18l-496 -501q-4 -3 -8.5 -5t-9.5 -2z" />
    <glyph glyph-name="uniE605" unicode="&#xe605;" horiz-adv-x="1025" 
d="M512 -128q-139 0 -257 68.5t-186.5 186.5t-68.5 257t68.5 257t186.5 186.5t257 68.5q104 0 199 -40.5t163.5 -109t109 -163.5t40.5 -199q0 -83 -26 -161.5t-73 -141.5t-110 -110t-141.5 -73t-161.5 -26zM723 535q13 12 13 30t-12.5 30.5t-30.5 12.5t-30 -13l-151 -151
l-151 151q-12 13 -30 13t-30.5 -12.5t-12.5 -30.5t13 -30l151 -151l-151 -151q-13 -12 -13 -30t13 -30q8 -8 19 -11t22 0t19 11l151 151l151 -151q6 -6 14 -9.5t16 -3.5t16 3.5t14 9.5q5 5 8 11t4 12.5t0 13t-4 12.5t-8 11l-151 151z" />
    <glyph glyph-name="uniE606" unicode="&#xe606;" 
d="M267 293q-26 0 -50 -10t-41.5 -27.5t-27.5 -41.5t-10 -50q0 -53 37.5 -91t91 -38t91.5 38t38 91q0 66 -54 105q-34 24 -75 24zM267 95q-29 0 -49.5 20t-20.5 49t20.5 49t49.5 20t49 -20t20 -49q0 -41 -36 -61q-16 -8 -33 -8zM763.5 293q-53.5 0 -91.5 -37.5t-38 -91
t38 -91.5t91.5 -38t91 38t37.5 91.5t-37.5 91t-91 37.5zM763 95q-29 0 -49 20t-20 49q0 19 9 35t25 25t35 9q11 0 22 -3.5t19.5 -9.5t14.5 -15t9.5 -19.5t3.5 -21.5q0 -41 -35 -61q-17 -8 -34 -8zM441 283h148q5 0 9.5 1.5t8 4.5t6.5 6.5t4.5 8t1.5 9.5q0 13 -9 21.5
t-21 8.5h-148q-6 0 -11.5 -2.5t-9.5 -6.5t-6.5 -9.5t-2.5 -11.5q0 -12 9 -21t21 -9zM589 194h-148q-12 0 -20.5 -9t-8.5 -21t8.5 -21t20.5 -9h148q13 0 21.5 9t8.5 21t-8.5 21t-21.5 9zM99 194v485h436v-295q0 -12 8.5 -19t20.5 -7q5 0 9.5 1t8 3t6.5 5.5t5 7.5t2 9v47
q-1 259 0 273q0 16 -9 25t-21 9h-492q-32 0 -32 -29v-26v-217v-158v-100v-38q-1 -19 8 -28q9 -8 24 -8h18q15 0 23.5 9.5t8.5 21.5q0 10 -6.5 18.5t-17.5 10.5zM991 449q-85 201 -95 219l-4 8q-2 2 -4 4.5t-3.5 3.5t-3.5 2.5t-5 1.5h-6h-8h-194q-20 0 -27 -8t-7 -24v-32
v-226q0 -13 2 -21t8.5 -14.5t18.5 -8.5q144 -28 182 -36h5q12 0 19.5 9t8.5 20t-4.5 19.5t-17.5 10.5q-27 6 -163 32v221h153l85 -194v-242q-11 -2 -17.5 -10t-6.5 -19q0 -12 7.5 -21.5t21.5 -9.5h26q6 1 12 3.5t11.5 9.5t5.5 17v284v1z" />
    <glyph glyph-name="uniE607" unicode="&#xe607;" horiz-adv-x="1025" 
d="M830 279q-25 4 -74 -39q39 -25 67.5 -54.5t41.5 -52t20.5 -45.5t8 -30.5t0.5 -12.5q4 2 9.5 5.5t18.5 14.5t20 23q10 15 12.5 29.5t-4 37t-26.5 48.5q-47 67 -94 76zM313 731q-8 -1 -16.5 -7t-16 -15t-14 -17t-9.5 -14l-4 -6q44 -12 80 -31.5t55.5 -38.5t32.5 -36.5
t17 -28.5l4 -10q3 4 8 10.5t14 23.5t13 31q6 25 -3.5 45t-48.5 50q-65 49 -112 44zM514 891q-83 0 -161 -25.5t-141 -72.5t-110 -109.5t-73 -140t-26 -159.5q0 -103 40.5 -197t109 -162t163 -108.5t198.5 -40.5q186 0 331 123q35 7 29 35q-7 34 -45 93.5t-89 89.5
q-4 2 -9.5 4t-20 -1t-25.5 -17q-2 0 -5 -0.5t-15 1.5t-25 8t-35.5 21.5t-46.5 39.5q-7 7 -28.5 27t-28.5 27t-24 24.5t-22.5 26t-17 24t-14.5 26.5l-7 24q-4 14 -2.5 27.5t6.5 27.5v2v5q0 3 -1 7t-3.5 10.5t-6.5 13t-11.5 14.5t-17 16.5t-24 18.5t-31.5 20q-20 11 -36 18.5
t-27.5 10t-20.5 4.5t-15 -1.5t-9.5 -4t-6.5 -7t-3.5 -7.5t-2.5 -7l-5 -14q-5 -13 -8 -23.5t-6 -27t-1.5 -34t7.5 -33.5q13 -32 34 -70t78.5 -111t135.5 -148q54 -50 98.5 -86.5t81 -59t66.5 -33t56 -11.5q-34 -18 -70.5 -31t-76.5 -20t-80 -7q-97 0 -185 37.5t-151.5 101
t-101.5 151t-38 183t38 183t101.5 151t151.5 101t185 37.5q64 0 126 -17t114 -47.5t96 -74t74.5 -95.5t47.5 -113t17 -125v-5v-4h35v3q0 1 0.5 2.5t0.5 3.5q0 82 -26 159.5t-73.5 140t-110 109.5t-140.5 72.5t-161 25.5z" />
    <glyph glyph-name="uniE608" unicode="&#xe608;" horiz-adv-x="1025" 
d="M396 585l-104 -106q44 -97 125.5 -182t176.5 -117l89 89q213 -37 261 -60q59 -29 48 -120q-1 -16 -9 -35t-20.5 -40.5t-32 -42t-43 -37t-54.5 -26.5t-64 -10q-69 -1 -155.5 31t-175.5 92t-161 136q-79 84 -137.5 167t-94 178t-25.5 175q6 47 26 84t43.5 57.5t52.5 34.5
t47.5 18t33.5 6q28 2 49.5 -7t38.5 -29q8 -10 19.5 -40t22.5 -66t21 -70t16 -57zM278 806q-24 32 -76 20q-14 -3 -31.5 -12t-41 -26.5t-41.5 -47.5t-23 -68q-11 -92 53 -227t180 -248q120 -117 233 -182t211 -73q27 -2 52 2.5t44.5 14t36.5 23t29 27.5t21.5 28.5t14.5 25.5
t7 19q7 27 2 50.5t-19 34.5q-11 8 -69 21.5t-110 23.5l-52 10l-94 -93q-78 25 -149 77.5t-127 127t-86 159.5l102 104l-44 153q-16 46 -23 56z" />
    <glyph glyph-name="uniE609" unicode="&#xe609;" horiz-adv-x="1025" 
d="M125 776q28 51 74 80q23 14 50.5 22t59.5 10h13q35 0 67 -24t55.5 -68t33.5 -100q8 -46 3.5 -88.5t-20.5 -72.5q-9 -15 -19.5 -26t-23 -17.5t-26.5 -8.5q-3 -2 -6.5 -5t-5.5 -5q0 -2 -0.5 -3.5t1.5 -7.5v-1q26 -57 60 -112q16 -25 33 -49t35 -46q12 -9 17 -8q2 0 3 2
q19 33 60 42q38 8 85.5 -6t93.5 -48q72 -51 103 -116t6 -111l-1 -1v-1q-2 -4 -5 -8q-29 -58 -79 -90q-46 -28 -103 -31t-118 19.5t-123 64.5t-121 106t-108 143q-96 153 -122 309t28 256zM410 562q25 46 11 124q-7 41 -23.5 75t-35.5 52t-36 18h-9h-1q-50 -1 -87 -24
q-33 -21 -53 -58q-46 -86 -20.5 -227.5t112.5 -280.5q35 -56 78 -105.5t87 -87t90 -63.5t88 -38.5t81 -9.5t70 21q18 12 33 29t25 40q1 3 4 6q1 1 2 3q13 24 -13 70t-78 83q-24 17 -48.5 28.5t-46.5 15.5t-39 1q-5 -2 -9 -3.5t-6 -4.5l-4 -3q-1 -1 -2 -3q-14 -25 -43 -31
q-33 -6 -67 22l-3 4q-41 49 -75 103q-19 30 -35 61t-30 62q-1 1 -1.5 2.5t-0.5 3.5q-3 9 -3.5 18t1.5 18t7 17q6 12 17 21t17 12l10 5h2l4 2h3q15 1 27 22zM624 550q5 9 15 13t20 1q40 -13 59 -50.5t6 -77.5q-4 -11 -15 -16.5t-22 -2.5q-5 2 -8.5 4.5t-6 6.5t-4 8t-1.5 8.5
t1 9.5q6 17 -2 33t-25 21q-8 3 -13 9t-6.5 13t0.5 15q1 3 2 5zM673 636q5 9 14.5 13t19.5 0q70 -22 103.5 -88t11.5 -136q-4 -11 -15 -16.5t-22 -2.5q-8 3 -13 9t-6.5 13t0.5 15q9 33 3 62.5t-27.5 54t-52.5 34.5q-11 4 -16.5 14.5t-1.5 22.5q1 2 2 5zM698 750q5 9 15 13
t20 1q58 -19 104 -58.5t74 -93.5q57 -113 18 -233q-4 -12 -14.5 -17.5t-22 -1.5t-17 14.5t-1.5 22.5q31 97 -15 188q-23 44 -60 76t-84 47q-11 4 -16.5 15t-2.5 22q1 2 2 5z" />
    <glyph glyph-name="uniE60A" unicode="&#xe60a;" 
d="M551 767q93 0 172.5 -46t125.5 -125.5t46 -172.5q0 -10 7.5 -17.5t17.5 -7.5t17 7.5t7 17.5q0 40 -7.5 78.5t-23.5 74.5q-29 71 -83.5 125.5t-125.5 83.5q-24 11 -49.5 17.5t-51.5 10t-52 3.5q-10 0 -17.5 -7t-7 -17t7.5 -17.5t17 -7.5zM527 597.5q0 -10.5 7 -17.5t17 -7
q62 0 106 -44t44 -106q0 -10 7.5 -17.5t17.5 -7.5t17 7.5t7 17.5q0 54 -26.5 100t-72.5 72.5t-100 26.5q-10 0 -17 -7t-7 -17.5zM925 177q-2 2 -5 4l-6 4l-164 128q-18 18 -44 18q-21 0 -38 -13l-44 -44l-3 -3q-5 -5 -11.5 -8t-13.5 -3q-8 0 -15.5 4t-12.5 10l-4 7l-2 -3
q-92 67 -157 156l4 1l-7 5q-5 4 -8 8t-5 9.5t-2 10.5q0 16 12 26l10 9h-1l37 37h1q12 17 12 38q0 13 -4.5 24.5t-13.5 20.5l-127 164q-4 6 -9 11q-9 9 -20.5 13.5t-24.5 4.5q-63 0 -120 -61q-59 -65 -59 -148q0 -15 2 -29.5t6 -28.5t10 -28v-1l1 -3q88 -175 229.5 -316.5
t316.5 -229.5l3 -1h1q41 -18 86 -18q40 0 78.5 15t69.5 44q19 18 33 38t21 41.5t7 40.5v6q-1 11 -6 21t-13 19zM259 767q4 0 6.5 -1t4.5 -3v-1q1 0 1 -1l1 -1q1 -1 2 -3l128 -164l2 -3q0 -1 2 -2q1 -1 2.5 -3.5t1.5 -6t-2 -6.5l-43 -43l-1 -1q-26 -24 -26 -60q0 -5 1 -10
l2 -10q1 -5 3 -10t4.5 -9.5t5.5 -8.5t7 -8q0 -1 1 -2q73 -100 176 -175v-1h1q12 -11 26.5 -17t30.5 -6q34 0 58 24l1 1q1 0 1 1l43 43q3 2 6.5 2t6 -1.5t4.5 -3t4 -3.5l164 -128l4 -2q1 -1 3 -2q4 -5 4 -10v-4q-2 -43 -50 -85.5t-110 -42.5q-35 0 -68 16l-7 3
q-164 84 -297 216.5t-216 296.5q-1 2 -1.5 3.5t-1.5 3.5q-8 16 -12 33.5t-4 34.5q0 64 47 115q19 21 42 33t42 12zM551 379q12 0 22 6t16 16t6 22q0 18 -13 31t-31 13q-4 0 -8 -1t-7.5 -2t-6.5 -3t-6 -4.5t-5.5 -5.5t-4.5 -6t-3.5 -7t-2 -7.5t-0.5 -7.5q0 -9 3.5 -17
t9.5 -14t14 -9.5t17 -3.5z" />
    <glyph glyph-name="uniE60B" unicode="&#xe60b;" 
d="M1024 384l-136 98v322h-831q-2 -1 -6 -1.5t-13 -4t-16 -9t-13 -16.5t-6 -26v-720q1 0 0 -5.5t2 -14.5t8 -17t17 -14t29 -6h830v320z" />
    <glyph glyph-name="uniE60C" unicode="&#xe60c;" 
d="M888 482v322h-831q-2 -1 -6 -1.5t-13 -4t-16 -9t-13 -16.5t-6 -26v-720q1 0 0 -5.5t2 -14.5t8 -17t17 -14t29 -6h830v320l135 94zM384 649h327v-29h-158l-21 -83h150v-277h-31v249h-224v-252h-31v280h105l21 83h-138v29zM230 161q-5 0 -15 -0.5t-25 -0.5q-3 17 -8 34
q20 -2 46 -2q36 -2 35 35v378h-91v29h193v-29h-72v-384q4 -60 -63 -60zM693 145q-81 70 -157 134q-27 -84 -178 -143q-6 9 -21 26q120 46 152 96q37 48 36 167v37h30v-35q0 -76 -11 -120q92 -72 172 -137z" />
    <glyph glyph-name="uniE60D" unicode="&#xe60d;" 
d="M512 832q-62 0 -118 -23.5t-96.5 -63t-64.5 -94t-24 -114.5q0 -75 30 -163t67.5 -154.5t87 -135t70.5 -93.5t36 -41l12 -14l12 14q93 102 173 236q118 200 118 351q0 80 -40.5 148t-110.5 107.5t-152 39.5zM512 -15q-24 27 -50 60t-68 96t-73.5 123.5t-55 135
t-23.5 137.5q0 109 79 186t191 77t191 -77t79 -186q0 -191 -197 -460q-37 -50 -73 -92zM515.5 646q-47.5 0 -81.5 -33t-34 -79.5t34 -79.5t81.5 -33t81.5 33t34 79.5t-34 79.5t-81.5 33zM515.5 452q-34.5 0 -59 24t-24.5 57.5t24.5 57t59 23.5t59 -23.5t24.5 -57
t-24.5 -57.5t-59 -24z" />
    <glyph glyph-name="uniE60E" unicode="&#xe60e;" 
d="M507 643q-73 0 -126.5 -54t-53.5 -128q0 -37 15 -77.5t46 -85t52.5 -71.5t59.5 -71l10 -10q0 -1 0.5 -1.5t1.5 -0.5q2 1 2 2q170 194 170 315q0 35 -11 66.5t-31.5 58t-55.5 42t-79 15.5zM506 369q-22 0 -42 8.5t-34 22.5t-22.5 34t-8.5 42q0 44 31.5 75.5t75.5 31.5
q29 0 53.5 -14.5t39 -39t14.5 -53.5q0 -15 -4 -29t-11 -25.5t-16.5 -21.5t-21.5 -17t-26 -10.5t-28 -3.5zM511 890q-210 0 -359 -149t-149 -359t149 -359t359 -149t359 149t149 359t-149 359t-359 149zM541 122q-12 -15 -28 -15h-2q-15 1 -28 15q-3 3 -9 11q-23 26 -35.5 40
t-34.5 42t-35 47t-30 47t-26 51t-15.5 49.5t-6.5 51.5q0 88 64 153t152 65q66 0 115 -30.5t73 -79t24 -108.5q0 -134 -178 -339zM505 548q-12 0 -22.5 -3.5t-19.5 -10.5t-15.5 -15.5t-10 -19.5t-3.5 -22q0 -20 9.5 -36.5t26.5 -26.5t36 -10q29 0 49.5 21.5t20.5 51.5
q0 42 -37 63q-17 8 -34 8z" />
    <glyph glyph-name="uniE60F" unicode="&#xe60f;" horiz-adv-x="1025" 
d="M515 834q-73 0 -141.5 -23t-123.5 -64.5t-96.5 -96.5t-64.5 -123.5t-23 -141.5q0 -170 113 -298q109 -122 270 -146q33 -5 66 -5q91 0 174 35.5t143.5 96t96 143.5t35.5 174t-35.5 174t-96 143.5t-143.5 96t-174 35.5zM515 -16q-109 0 -201.5 53.5t-146 146t-53.5 201.5
t53.5 201.5t146 146t201.5 53.5t201.5 -53.5t146 -146t53.5 -201.5t-53.5 -201.5t-146 -146t-201.5 -53.5zM756 570l-318 -318l-164 164q-7 8 -17 8t-17.5 -7.5t-7.5 -17.5t7 -17l182 -182q5 -5 11 -6.5t12.5 0t11.5 6.5l335 335q4 5 6 11t0 12.5t-6 11.5q-8 7 -18 7t-17 -7
z" />
    <glyph glyph-name="uniE610" unicode="&#xe610;" horiz-adv-x="1025" 
d="M922 660l-540 -540l-260 260q-9 8 -20.5 8t-19.5 -8t-8 -19.5t8 -20.5l280 -280q4 -4 9 -6t11 -2q11 0 20 8l560 560q8 9 8 20.5t-8.5 19.5t-20 8t-19.5 -8z" />
    <glyph glyph-name="uniE611" unicode="&#xe611;" 
d="M917 896h-810q-44 0 -75.5 -31.5t-31.5 -75.5v-810q0 -44 31.5 -75.5t75.5 -31.5h810q44 0 75.5 31.5t31.5 75.5v810q0 44 -31.5 75.5t-75.5 31.5zM832 550q-56 -53 -95 -93q-49 -50 -112 -122q-136 -154 -245 -306l-329 318l185 146l158 -149q88 76 178 144q59 46 83 63
q49 36 87 61q125 87 192 129l49 -65q-47 -29 -151 -126z" />
    <glyph glyph-name="uniE612" unicode="&#xe612;" 
d="M504 871q-79 0 -153.5 -24.5t-135 -70t-105.5 -105.5t-69.5 -134.5t-24.5 -153.5q0 -100 38.5 -190t104 -155.5t156 -104.5t189.5 -39t189.5 39t156 104.5t104 155.5t38.5 189.5t-38.5 190t-104 156t-156 104t-189.5 38.5zM807 548l-368 -369q-8 -8 -19.5 -8t-18.5 8
l-200 200q-8 8 -8 19t8 19t19 8t19 -8l181 -180l349 349q8 8 19 8t19 -8q4 -4 6 -9t2 -10t-2 -10t-6 -9z" />
    <glyph glyph-name="uniE613" unicode="&#xe613;" 
d="M231 -83v198h-128h-4q-23 0 -41 10q-17 9 -26 25t-9 37v501q-3 35 20 61q30 34 92 34h753h4h6q47 0 80.5 -31t33.5 -96v-470h-1q0 -21 -15 -39q-27 -32 -84 -32h-464zM101 169h1h183v-129l142 129h485q32 0 42 13q1 1 2 2.5t1 3.5l1 1v467q0 73 -60 73h-5h-2h-2h-754
q-38 0 -52 -15q-8 -10 -7 -21l1 -2v-2v-502q0 -11 6.5 -14.5t15.5 -3.5h1h1zM211 354h405v-66h-405v66zM211 483h609v-66h-609v66zM211 614h609v-66h-609v66z" />
    <glyph glyph-name="uniE614" unicode="&#xe614;" 
d="M512 13q13 0 22.5 9.5t9.5 22.5q0 6 -2.5 12t-7 10.5t-10.5 7t-12 2.5q-13 0 -22.5 -9.5t-9.5 -22.5q0 -9 4.5 -16.5t11.5 -11.5t16 -4zM823 825q-6 6 -15 6h-592q-9 0 -15 -6q-6 -7 -6 -15v-852q0 -9 6 -15q1 -1 3 -2.5t4 -2.5h4q2 -1 4 -1h592q4 0 8 1.5t7 4.5
q6 6 6 15v187v665q0 9 -6 15zM797 799v-64h-570v64h570zM797 -31h-570v160h570v-160zM227 160v543h570v-543h-570z" />
    <glyph glyph-name="uniE615" unicode="&#xe615;" 
d="M513.5 892q-103.5 0 -198 -40t-162.5 -108t-108.5 -162.5t-40.5 -198t40.5 -197.5t108.5 -162t162.5 -108.5t197.5 -40.5t197.5 40.5t162.5 108.5t108.5 162t40.5 197.5t-40.5 198t-108.5 162.5t-162 108t-197.5 40zM619 269q12 9 26.5 14t29.5 5q39 0 66.5 -28
t27.5 -66.5t-27.5 -66.5t-66.5 -28t-66.5 28t-27.5 66v1l-239 115q-24 -15 -51 -15q-26 0 -47.5 12.5t-34 34.5t-12.5 47.5t12.5 47t34 34t47.5 12.5q32 0 58 -20l232 112q0 25 12.5 47t34.5 34.5t47 12.5q39 0 66.5 -27.5t27.5 -66.5q0 -26 -12.5 -47.5t-34 -34
t-47.5 -12.5q-31 0 -56 19l-234 -113l-1 -4z" />
    <glyph glyph-name="uniE616" unicode="&#xe616;" 
d="M817 245q-8 0 -15 -1t-14 -2.5t-14 -3.5t-14 -4.5t-13.5 -6t-12.5 -7.5q-12 -7 -22 -16.5t-18 -21t-14 -23.5l-193 34q0 4 0.5 8t0.5 9l2 8v9q0 82 -55 142l180 180q6 -3 12.5 -4.5t12.5 -2.5l14 -2q6 -1 13 -1q63 0 107.5 45t44.5 108q0 41 -20.5 76t-55.5 55.5
t-76 20.5q-63 0 -108 -44.5t-45 -107.5t45 -108l-175 -174q-16 10 -33.5 16.5t-36 9.5t-37.5 3q-88 0 -150 -62t-62 -150t62 -150t150 -62q62 0 113 32q50 32 76 83l198 -35v-3q0 -63 45 -107.5t108 -44.5q41 0 76 20.5t55.5 55.5t20.5 76q0 63 -44.5 108t-107.5 45z
M817 180q36 0 61.5 -26t25.5 -62t-25.5 -61.5t-61.5 -25.5t-62 25.5t-26 61.5q0 10 2.5 20t7 18.5t10.5 16t13.5 13.5t16 10.5t18.5 7t20 2.5zM277 80q-61 0 -104 43t-43 104t43 104.5t104 43.5q15 0 29.5 -3.5t28 -9t25 -13.5t21.5 -18t18 -21.5t14 -25t9 -28t3 -29.5
q0 -73 -60 -118q-39 -29 -88 -29zM579 692q0 23 12 43.5t32 32t44 11.5q14 0 27.5 -4.5t24 -12.5t18.5 -18.5t12.5 -24t4.5 -27.5q0 -36 -25.5 -62t-61.5 -26t-62 26t-26 62z" />
    <glyph glyph-name="uniE617" unicode="&#xe617;" 
d="M367 372q-23 0 -43.5 -12t-32.5 -32.5t-12 -44.5q0 -18 7 -34t19 -28t28.5 -19t33.5 -7q9 0 18 2t17 5t15 8t13 11t10.5 13t8 15t5.5 16.5t2 17.5q0 37 -26 63t-63 26zM601 509q21 0 36.5 15.5t15.5 36.5q0 9 -2.5 17t-7.5 14.5t-11.5 11.5t-14.5 7.5t-16.5 2.5
t-16.5 -2.5t-14.5 -7.5t-11 -11.5t-7.5 -14.5t-3 -17q0 -14 7 -26t19.5 -19t26.5 -7zM511 890q-210 0 -359 -149t-149 -359t149 -359t359 -149t359 149t149 359t-149 359t-359 149zM690 111q-37 0 -64 27t-27 65v1l-118 21q-16 -31 -46 -49q-31 -20 -68 -20
q-52 0 -89.5 37.5t-37.5 90t37.5 89.5t89.5 37q12 0 23 -2t21.5 -5.5t20.5 -9.5l104 104q-26 27 -26 64q0 25 12 46t33 33.5t46 12.5q37 0 64 -27t27 -64.5t-27 -64.5t-64 -27q-17 0 -32 6l-107 -108q10 -11 17.5 -25t11.5 -29t4 -31q0 -10 -2 -20l115 -21q11 23 33 37
q11 7 23.5 11t25.5 4q38 0 65 -27t27 -64q0 -9 -1.5 -17t-4.5 -15.5t-7 -14t-9 -12.5t-11 -11t-12.5 -9t-14 -7t-15.5 -4.5t-17 -1.5zM690 255q-21 0 -36.5 -15.5t-15.5 -36.5q0 -15 7 -27t19 -19t26 -7q11 0 20.5 4.5t16.5 11.5t11.5 16.5t4.5 20.5q0 7 -2 13.5t-5.5 12.5
t-8 10.5t-10.5 8t-12.5 5.5t-14.5 2z" />
    <glyph glyph-name="uniE618" unicode="&#xe618;" horiz-adv-x="1026" 
d="M843 112h-446q-21 0 -40.5 5t-33.5 13.5t-24.5 17.5t-18.5 19q-5 6 -9 11.5t-7 10.5t-5.5 10.5t-4 9t-2.5 7t-1.5 4.5t-0.5 2v1q-5 19 -12 49.5t-24 104.5t-31 136.5t-27.5 127.5t-18.5 96q-9 61 -62 82q-29 11 -53 10q-15 -1 -19 13v3q-1 8 4 13.5t13 6.5q33 2 68 -12
q72 -29 85 -110q4 -24 12 -69h1q503 2 673 2q108 0 144 -45q20 -26 14 -54q-48 -249 -69 -347q-7 -31 -20.5 -55t-26 -35t-27 -18t-20.5 -8.5t-10 -1.5h-1zM285 231q6 -22 23 -42q34 -41 89 -41h445q2 0 4.5 1t8.5 3.5t11.5 6t12.5 10.5t13 16t11.5 22.5t8.5 30.5
q22 99 70 346v1v3q0 2 -0.5 5.5t-2.5 7.5t-5 8q-25 31 -115 31q-154 0 -666 -1q33 -159 92 -408zM388 -121q-37 0 -63.5 26.5t-26.5 63.5q0 18 7 35t19 29t29 19t35 7q37 0 63.5 -26.5t26.5 -63.5q0 -15 -4.5 -28.5t-13 -24.5t-19.5 -19.5t-24.5 -13t-28.5 -4.5zM388 23
q-22 0 -38 -16t-16 -38t16 -38t38 -16t38 16t16 38t-16 38t-38 16zM768 -121q-24 0 -45 12t-33 33t-12 45t12 45t33 33t45 12q37 0 63.5 -26.5t26.5 -63.5t-26.5 -63.5t-63.5 -26.5zM768 23q-22 0 -38 -16t-16 -38t16 -38t38 -16q15 0 27 7t19.5 19.5t7.5 27.5t-7.5 27
t-19.5 19.5t-27 7.5z" />
    <glyph glyph-name="uniE619" unicode="&#xe619;" horiz-adv-x="1026" 
d="M843 112h-446q-21 0 -40.5 5t-33.5 13.5t-24.5 17.5t-18.5 19q-5 6 -9 11.5t-7 10.5t-5.5 10.5t-4 9t-2.5 7t-1.5 4.5t-0.5 2v1q-5 19 -12 49.5t-24 104.5t-31 136.5t-27.5 127.5t-18.5 96q-9 61 -62 82q-29 11 -53 10q-15 -1 -19 13v3q-1 8 4 13.5t13 6.5q33 2 68 -12
q72 -29 85 -110q4 -24 12 -69h1q503 2 673 2q108 0 144 -45q20 -26 14 -54q-48 -249 -69 -347q-7 -31 -20.5 -55t-26 -35t-27 -18t-20.5 -8.5t-10 -1.5h-1zM388 -121q-37 0 -63.5 26.5t-26.5 63.5q0 18 7 35t19 29t29 19t35 7q37 0 63.5 -26.5t26.5 -63.5q0 -15 -4.5 -28.5
t-13 -24.5t-19.5 -19.5t-24.5 -13t-28.5 -4.5zM388 23q-22 0 -38 -16t-16 -38t16 -38t38 -16t38 16t16 38t-16 38t-38 16zM768 -121q-24 0 -45 12t-33 33t-12 45t12 45t33 33t45 12q37 0 63.5 -26.5t26.5 -63.5t-26.5 -63.5t-63.5 -26.5zM768 23q-22 0 -38 -16t-16 -38
t16 -38t38 -16q15 0 27 7t19.5 19.5t7.5 27.5t-7.5 27t-19.5 19.5t-27 7.5z" />
    <glyph glyph-name="uniE61A" unicode="&#xe61a;" 
d="M554 372q-34 0 -53.5 -25t-19.5 -65t19.5 -65t52.5 -25q34 0 52.5 24t18.5 65q0 42 -18 66.5t-52 24.5zM917 511q36 39 24 138q-8 48 -15 46q-3 -6 -8 -10.5t-10.5 -7t-11 -4t-8.5 -1.5l-4 -1q2 1 4 6t4.5 26.5t-2.5 59.5q-5 36 -14.5 64.5t-16.5 39.5l-7 10
q-21 -31 -62 -71q-18 -18 -45 -29t-45 -13l-18 -2q4 11 6 30q2 9 1 18t-3 15l-2 6q-9 -13 -56 -44q-32 -20 -46 -23q-18 3 -35.5 4.5t-36.5 1.5q-91 0 -174 -35.5t-143 -95.5t-95.5 -143.5t-35.5 -174.5t35.5 -174.5t95.5 -143.5t143 -95.5t174.5 -35.5t174.5 35.5t143 95.5
t96 143.5t36 174.5q0 50 -11 98t-32 92zM374 147h-57v111h-116v-111h-57v271h57v-110h116v110h57v-271zM648 181.5q-37 -39.5 -96 -39.5t-95 38t-36 99q0 63 37 103t98 40q58 0 93.5 -38.5t35.5 -99.5q0 -63 -37 -102.5zM902 370h-77v-223h-58v223h-77v48h212v-48z" />
    <glyph glyph-name="uniE61B" unicode="&#xe61b;" 
d="M648 -73h-34v241q-2 20 -15 38q-26 37 -86 37q-25 0 -43.5 -6t-30.5 -18q-19 -20 -19 -46v0v-246h-34v246q0 39 29 69q34 35 98 35q79 0 115 -53q8 -12 13 -26t6 -19.5t1 -8.5v-2v-241zM859 -107h-672q-63 0 -99 37q-16 17 -24.5 40.5t-9.5 35t-1 19.5v393h-34
q-5 0 -9.5 3.5t-6.5 8.5q-4 11 5 18l506 425q11 9 22 0l481 -425q9 -8 5 -19t-16 -11h-29v-376q0 -77 -42 -118q-19 -18 -39.5 -24.5t-36.5 -6.5zM66 452h4q3 0 6 -1t6 -4q4 -5 5 -12v-411q0 -5 0.5 -13t7 -26.5t18.5 -30.5q13 -13 31.5 -20t42.5 -7h672q6 0 13 1.5
t18.5 6.5t21.5 14q31 30 31 94v392q0 5 2 9t6 6t9 2h1l-437 385z" />
    <glyph glyph-name="uniE61C" unicode="&#xe61c;" 
d="M1017 448l-481 425q-11 9 -22 0l-506 -425q-4 -3 -5 -8t0 -10q4 -12 16 -12h34v-393q0 -8 1 -19.5t9.5 -35t24.5 -40.5q36 -37 99 -37h672q44 0 76 31q42 41 42 118v376h29q12 0 16 11q2 5 0.5 10.5t-5.5 8.5zM420 173v4q0 2 1.5 7.5t3 10.5t5.5 11.5t9 12.5q24 24 74 24
q60 0 86 -37q13 -18 15 -38v-241h-194v246v0z" />
    <glyph glyph-name="uniE61D" unicode="&#xe61d;" horiz-adv-x="1025" 
d="M508 801q-71 0 -137.5 -22t-120 -62.5t-94 -94t-62.5 -120t-22 -137.5q0 -89 34.5 -169.5t93 -139t139 -93t169.5 -34.5t169.5 34.5t139 93t93 139t34.5 169.5q0 45 -9 88t-25.5 81.5t-40 74t-53 65t-65 53t-74 40t-81.5 25.5t-88 9zM788 338h-247v-240h-86v240h-233v82
h233v218h86v-218h247v-82z" />
    <glyph glyph-name="uniE61E" unicode="&#xe61e;" 
d="M252 395h526v-28h-526v28zM501 644h28v-526h-28v526zM933 -107h-836q-29 0 -49.5 20.5t-20.5 49.5v836q0 29 20.5 49.5t49.5 20.5h836q29 0 49.5 -20.5t20.5 -49.5v-836q0 -11 -3.5 -22t-10 -19.5t-15 -15t-19.5 -10t-22 -3.5zM97 835q-10 0 -18 -5t-13 -13t-5 -18v-836
q0 -15 10.5 -25.5t25.5 -10.5h836q15 0 25.5 10.5t10.5 25.5v836q0 15 -10.5 25.5t-25.5 10.5h-836z" />
    <glyph glyph-name="uniE61F" unicode="&#xe61f;" 
d="M252 395h526v-28h-526v28zM501 644h28v-526h-28v526z" />
    <glyph glyph-name="uniE620" unicode="&#xe620;" horiz-adv-x="1025" 
d="M508 801q-71 0 -137.5 -22t-120 -62.5t-94 -94t-62.5 -120t-22 -137.5q0 -89 34.5 -169.5t93 -139t139 -93t169.5 -34.5t169.5 34.5t139 93t93 139t34.5 169.5q0 45 -9 88t-25.5 81.5t-40 74t-53 65t-65 53t-74 40t-81.5 25.5t-88 9zM788 338h-566v82h566v-82z" />
    <glyph glyph-name="uniE621" unicode="&#xe621;" 
d="M252 395h526v-28h-526v28zM933 -107h-836q-29 0 -49.5 20.5t-20.5 49.5v836q0 29 20.5 49.5t49.5 20.5h836q29 0 49.5 -20.5t20.5 -49.5v-836q0 -11 -3.5 -22t-10 -19.5t-15 -15t-19.5 -10t-22 -3.5zM97 835q-10 0 -18 -5t-13 -13t-5 -18v-836q0 -15 10.5 -25.5
t25.5 -10.5h836q15 0 25.5 10.5t10.5 25.5v836q0 15 -10.5 25.5t-25.5 10.5h-836z" />
    <glyph glyph-name="uniE622" unicode="&#xe622;" 
d="M252 395h526v-28h-526v28z" />
    <glyph glyph-name="uniE623" unicode="&#xe623;" 
d="M34 609l478 -478l478 478h-956z" />
    <glyph glyph-name="uniE624" unicode="&#xe624;" 
d="M990 131l-478 478l-478 -478h956z" />
    <glyph glyph-name="uniE625" unicode="&#xe625;" 
d="M913 477q-16 0 -28 -10h-1l-2 -2l-358 -359q-12 -11 -23 0l-361 361v-1q-13 11 -29 11q-18 0 -30.5 -12.5t-12.5 -30.5q0 -11 5.5 -20.5t14.5 -15.5q1 0 1 -1.5t1 -2.5l411 -411q11 -11 23 0l411 411q0 1 0.5 2.5t0.5 2.5q9 6 14.5 15t5.5 20q0 18 -12.5 30.5t-30.5 12.5
zM88 710q1 0 1 -1.5t1 -2.5l411 -411q11 -11 23 0l411 411q0 1 0.5 2.5t0.5 2.5q9 6 14.5 15t5.5 20q0 12 -6 22t-16 16t-21 6q-6 0 -11 -1.5t-9 -4t-8 -5.5h-1l-2 -2l-358 -359q-12 -11 -23 0l-361 361v-1q-4 4 -8.5 6.5t-9.5 4t-11 1.5q-18 0 -30.5 -13t-12.5 -31
q1 -23 20 -36z" />
    <glyph glyph-name="uniE626" unicode="&#xe626;" 
d="M873 -64h-720q-76 0 -107 52t7 119l363 657q37 68 96.5 68t96.5 -68l364 -657q38 -67 7 -119q-10 -17 -25.5 -28.5t-36.5 -17.5t-45 -6zM513 763q-19 0 -37 -32l-364 -657q-18 -33 -7 -51t48 -18h720q37 0 48 18t-7 51l-364 657q-18 32 -37 32zM513 247q-14 0 -24 10
t-10 24v310q0 10 4.5 18t12.5 12.5t17 4.5q14 0 24 -10t10 -25v-310q0 -14 -10 -24t-24 -10zM512.5 78q14.5 0 27 7.5t19.5 19.5t7 27q0 22 -15.5 38t-37.5 16t-38 -16t-16 -38q0 -15 7.5 -27t19.5 -19.5t26.5 -7.5z" />
    <glyph glyph-name="uniE627" unicode="&#xe627;" 
d="M369 298q0 -6 1 -14.5t9 -31t21.5 -40t43 -31.5t69.5 -14q23 0 42.5 4.5t33.5 12t25 17.5t18 20.5t12 21.5t7 21l3 18q2 7 2 11v5q-5 -6 -15.5 -13.5t-42 -22.5t-64 -19.5t-78 7.5t-87.5 48zM776 351q0 109 -77 186t-186 77q-72 0 -132.5 -35.5t-95.5 -96t-35 -131.5
q0 -12 1 -24t3 -23t5 -22t6.5 -21.5t8.5 -20.5t10.5 -19.5t11.5 -19t13 -18t15 -15.5q33 -30 68 -49q23 -11 45 -20q37 -12 76 -12q109 0 186 77.5t77 186.5zM513 127q-93 0 -158.5 65.5t-65.5 158t65.5 158t158 65.5t158 -65.5t65.5 -157.5q0 -101 -75 -168
q-63 -56 -148 -56zM848 433q-19 75 -67 134.5t-118.5 93.5t-150 34t-149.5 -34t-118.5 -93.5t-66.5 -134.5q-4 0 -10 -1.5t-22 -9t-28 -18.5t-21 -32t-8 -47q1 -19 7 -34.5t15 -25.5t20 -17.5t21 -11.5t19.5 -6.5t14 -3t5.5 -0.5q1 -1 3 -1t6 1t7.5 1.5t7.5 1.5t5 1
q-23 58 -23 121q0 51 16 99.5t45 87t68 68t87 45.5t100 16q131 0 223.5 -92.5t92.5 -223.5q0 -104 -60 -186t-155 -114q-4 -1 -8 -1t-6 1l-3 1q-21 4 -48 -4q-19 -5 -17.5 -29.5t21.5 -27.5q14 -4 32.5 -1.5t25.5 16.5q9 17 13 18q72 25 127.5 78t83.5 124q3 1 10 2t24 8
t30 17t24 29.5t12 45t-8 45.5t-22 30.5t-26 18t-22 9.5z" />
    <glyph glyph-name="uniE628" unicode="&#xe628;" 
d="M513 -127q-26 0 -51.5 2.5t-50 7.5t-49 12.5t-47.5 17.5q-91 39 -161.5 109.5t-109.5 161.5q-40 95 -40 198q0 104 40 198q19 46 46.5 86.5t62.5 75.5q71 70 162 109q94 40 197.5 40t198.5 -40q45 -19 86 -46.5t76 -62.5q70 -71 109 -162q13 -31 22 -63.5t13.5 -66.5
t4.5 -68q0 -103 -40 -198q-13 -30 -29.5 -58t-36.5 -54t-43 -50q-71 -70 -162 -109q-24 -10 -48 -17.5t-49 -12.5t-50 -7.5t-51 -2.5zM513 841q-93 0 -178 -36.5t-146.5 -98t-98 -146.5t-36.5 -178t36.5 -178t98 -146.5t146.5 -98t178 -36.5t178 36.5t146.5 98t98 146.5
t36.5 178q0 54 -12.5 105.5t-35 96.5t-54 85t-71 71t-85 54t-97 35t-104.5 12zM339 359q-31 0 -52.5 21.5t-21.5 52.5q0 20 9.5 37t27 27t37.5 10q30 0 52 -21.5t22 -52.5q0 -15 -6 -29t-16 -23.5t-23.5 -15.5t-28.5 -6zM339 473q-9 0 -16 -3t-12.5 -8.5t-8.5 -13t-3 -15.5
q0 -17 11.5 -28.5t28 -11.5t28.5 11.5t12 28t-12 28.5t-28 12zM693 359q-31 0 -52.5 21.5t-21.5 52.5q0 12 3.5 23.5t10.5 20.5t16 15.5t20.5 10.5t23.5 4q30 0 52 -21.5t22 -52.5q0 -20 -10 -37t-27 -27t-37 -10zM693 473q-11 0 -20 -5.5t-14.5 -14.5t-5.5 -20
q0 -17 11.5 -28.5t28 -11.5t28.5 11.5t12 28.5q0 8 -3.5 15.5t-8.5 13t-12.5 8.5t-15.5 3zM756 114q-9 0 -15 7l-2 2l-4 4q-3 3 -6 6.5t-8.5 8.5t-11 9.5t-13 10.5t-15.5 11q-38 25 -77.5 37.5t-81.5 12.5q-83 0 -162 -50q-40 -26 -63 -52q-6 -7 -14 -7.5t-15 5.5
q-3 3 -4.5 6.5t-2 7t1 7.5t4.5 7q3 4 8.5 10t23.5 21t38 27q89 58 185 58q47 0 93.5 -14.5t88.5 -43.5q43 -29 68 -58q5 -7 4 -15t-7 -14q-3 -2 -6 -3t-7 -1z" />
    <glyph glyph-name="uniE629" unicode="&#xe629;" 
d="M825 35v719h-631v-719h-58v-40h58h631h59v40h-59zM785 714v-616h-120v132h-307v-128h-124v612h551zM493 105v-70h-99v4v15v140h97v-44h36v44h102v-159h-100v70h-36zM234 66h124v-12v-15v-4h-124v31zM665 35v27h120v-27h-120zM415 440h-146v-167h146v167zM379 309h-74v95
h74v-95zM415 623h-146v-167h146v167zM379 492h-74v95h74v-95zM587 440h-145v-167h145v167zM551 309h-73v95h73v-95zM587 623h-145v-167h145v167zM551 492h-73v95h73v-95zM749 440h-145v-167h145v167zM713 309h-73v95h73v-95zM749 623h-145v-167h145v167zM713 492h-73v95h73
v-95z" />
    <glyph glyph-name="uniE62A" unicode="&#xe62a;" 
d="M488 531h52v-66h-52v66zM602 403h52v-67h-52v67zM488 403h52v-67h-52v67zM317 144h87v3v10v9h-87v-22zM523 225h-25v30h-69v-98v-10v-3h70v48h25v-48h71v111h-72v-30zM620 162h84v-18h-84v18zM602 531h52v-66h-52v66zM367 403h52v-67h-52v67zM317 191h87v89h216v-92h84
v432h-387v-429zM577 556h102v-117h-102v117zM577 428h102v-117h-102v117zM463 556h102v-117h-102v117zM463 428h102v-117h-102v117zM342 556h102v-117h-102v117zM342 428h102v-117h-102v117zM511 890q-210 0 -359 -149t-149 -359t149 -359t359 -149t359 149t149 359
t-149 359t-359 149zM774 116h-42h-443h-41v28h41v504h443v-504h42v-28zM367 531h52v-66h-52v66z" />
    <glyph glyph-name="uniE62B" unicode="&#xe62b;" 
d="M512 896q-212 0 -362 -150t-150 -362t150 -362t362 -150t362 150t150 362t-150 362t-362 150zM626 437v16v185q31 -13 61 -38l8 -6l8 -8q4 -3 7 -6q12 -12 22.5 -26t20.5 -31q4 -5 8 -16l-139 -138q1 3 2 8t1.5 9.5t0.5 7.5v4q0 1 0.5 2.5t0.5 2.5v34h-1zM485 657
q21 2 30 2q10 0 19 -0.5t17.5 -1.5t17 -3t17.5 -4q13 -5 17 -5v-195q-3 2 -5 3.5t-3 2.5l-2 4l-2 2l-2 4q-1 1 -3 2l-2 2q-1 1 -2.5 2t-3.5 2l-24 24l-11 11l-130 130q32 13 72 18zM300 558q4 4 10.5 11t10.5 11q23 23 57 42q4 3 16 8l137 -138q-2 0 -11 2.5t-14 2.5
q-2 0 -5 1t-4 1h-34h-16h-184q6 15 14.5 28t22.5 31zM410 332v-16v-183q-18 6 -34 15.5t-30 21.5q-1 1 -10 9t-14 12q-26 26 -43 56q-4 5 -8 16l137 138v-6v-7v-6v-6q0 -2 1.5 -5t1.5 -4v-35h-1zM402 424l-12 -12l-129 -129q-13 31 -19 70q-2 21 -2 31q0 18 2.5 36.5
t6.5 36.5t5 18h194q-1 0 -3 -1t-3.5 -2.5t-3 -3.5t-2.5 -4t-3 -4l-3 -3l-6 -8zM545 111q-20 -2 -31 -2q-37 0 -74 9q-12 5 -19 5v196q7 -4 13 -10.5t7 -7.5l10 -6l25 -24l11 -11l130 -130q-31 -13 -72 -19zM728 216q-3 -4 -10 -12.5t-10 -12.5q-14 -14 -28 -25.5t-29 -19.5
q-3 -2 -8.5 -5t-7.5 -4l-138 139q5 -1 25 2q2 0 5 2.5t4 2.5h34h16h184q-13 -39 -37 -67zM779 317q-1 -5 -2.5 -9t-2.5 -4h-195q6 0 18 13q1 0 3 2t3 4l24 22l11 12l130 129q7 -16 11.5 -34t6.5 -37q2 -21 2 -29q0 -33 -9 -69z" />
    <glyph glyph-name="uniE62C" unicode="&#xe62c;" 
d="M1000 895h-976q-4 0 -8.5 -2t-7.5 -5t-5 -7.5t-2 -8.5v-976q0 -9 7 -16t16 -7h976q9 0 16 7t7 16v976q0 9 -7 16t-16 7zM976 -80h-928v218l280 248l283 -315q6 -7 15.5 -8t16.5 5l173 145l155 -170q1 -1 5 -4v-119zM976 106l-141 154q-7 7 -16 7.5t-16 -4.5l-173 -145
l-283 316q-6 7 -15.5 8t-16.5 -6l-267 -236v648h928v-742zM697.5 460q43.5 0 74.5 31t31 75q0 17 -5 33t-15 29t-23 23t-29 15.5t-33 5.5q-44 0 -75 -31t-31 -75t31 -75t74.5 -31zM698 625q16 0 29.5 -8t21.5 -21.5t8 -29.5q0 -25 -17.5 -42t-41.5 -17q-10 0 -19 3
t-16.5 8.5t-13 12.5t-8.5 16t-3 19q0 24 17.5 41.5t42.5 17.5z" />
    <glyph glyph-name="uniE62D" unicode="&#xe62d;" horiz-adv-x="1025" 
d="M512 -120q-100 0 -192 39.5t-158 107t-105.5 160.5t-39.5 195t39.5 195t105.5 160.5t158 107t192.5 39.5t192.5 -39.5t158 -107t105.5 -160.5t39.5 -195q0 -186 -120 -327q-114 -134 -284 -167q-46 -8 -92 -8zM512.5 807q-113.5 0 -210 -57t-153 -155t-56.5 -213
t56.5 -213t153 -155t210 -57t210 57t153 155t56.5 213t-56.5 213t-153 155t-210 57zM512.5 34q-15.5 0 -27 11.5t-11.5 27.5v386q0 16 11.5 27.5t27.5 11.5q7 0 14 -3t12.5 -8.5t8.5 -12.5t3 -15v-386q0 -16 -11.5 -27.5t-27 -11.5zM665 343h-305q-16 0 -27 11.5t-11 27.5
t11 27.5t27 11.5h305q10 0 19 -5.5t14 -14.5t5 -19.5t-5 -19t-14 -14t-19 -5.5zM512.5 421q-7.5 0 -14.5 2.5t-12 8.5q-12 11 -12 27t12 27l152 155q11 11 27 11t27 -11t11 -27t-11 -28l-153 -154q-5 -6 -12 -8.5t-14.5 -2.5zM513 421q-8 0 -15 2.5t-12 8.5l-153 155
q-11 11 -11 27t11.5 27t27 11t26.5 -11l153 -154q11 -12 11 -28t-11 -27t-27 -11zM665 189h-305q-8 0 -15 3t-12 8t-8 12.5t-3 14.5q0 16 11 27.5t27 11.5h305q16 0 27 -11.5t11 -27.5q0 -7 -3 -14.5t-8 -12.5t-12 -8t-15 -3z" />
    <glyph glyph-name="uniE62E" unicode="&#xe62e;" 
d="M747 476q0 17 -3.5 33t-10.5 30t-17 26.5t-22.5 22t-26.5 16.5t-30 11t-32 4q-9 0 -18.5 -1.5t-18 -3.5t-16.5 -5t-16 -8q1 0 2 -1t1 -2q25 -24 38 -55.5t13 -66t-13 -66t-38 -56.5l-6 -6q12 -6 26.5 -9t33.5 -5q6 1 12 1h3q2 0 4 -0.5t4 -0.5q36 3 66 22.5t47.5 51.5
t17.5 68zM494 321q9 -3 17 -6q4 2 8.5 3.5t8.5 2.5q-9 5 -17 10q-4 -2 -8.5 -4.5t-8.5 -5.5zM560 476q0 59 -42 101t-101 42t-100.5 -42t-41.5 -101q0 -27 10 -52.5t27.5 -44t42 -30.5t51.5 -15l11 1q6 0 12 -1q55 5 93 46t38 96zM511 890q-210 0 -359 -149t-149 -359
t149 -359t359 -149t359 149t149 359t-149 359t-359 149zM803 115q-2 37 -17 71t-41 60t-59 41t-70 17h-12h-11q-8 0 -16 -2l-16 -2q-8 -2 -16 -5q18 -12 34 -27q63 -64 66 -153h-30q-3 77 -58 131q-53 54 -128 58h-11h-12q-75 -4 -129 -58t-58 -131h-30q4 89 67 153
q12 12 25.5 22t28.5 18t31 13q-7 4 -13 7.5t-11.5 7.5t-11 8.5t-10.5 9.5q-50 51 -50 122.5t50.5 122t121.5 50.5q51 0 94 -28q8 6 17 10.5t18 7.5t19 5.5t20 3.5t20 1q23 0 44.5 -6t41.5 -17t36 -28q24 -24 37 -55.5t13 -66t-13 -66t-37 -56.5q-10 -10 -21.5 -18t-24.5 -15
q48 -17 85 -53q63 -64 67 -153h-30z" />
    <glyph glyph-name="uniE62F" unicode="&#xe62f;" 
d="M875 221q-52 52 -120 77q7 3 14 7t13.5 8.5t13 9.5t12.5 10.5t12 10.5q72 72 72 174q0 50 -19 95t-53.5 79.5t-79.5 53.5t-94 19q-73 0 -134 -40q-61 40 -133 40q-102 0 -174.5 -72.5t-72.5 -174.5t73 -174q28 -28 64 -46q-68 -25 -120 -77q-91 -90 -95 -218h43
q4 110 82 188q76 76 183 82q8 -1 16 -1q5 0 9 0.5t8 0.5q107 -6 183 -82q78 -78 82 -188h43q-4 128 -95 218q-11 11 -22.5 21t-24.5 19q33 10 68 12q8 -1 16.5 -1t16.5 1q107 -6 183 -82q78 -78 82 -188h43q-4 128 -95 218zM395 316q-8 1 -16 1q-5 0 -9 -0.5t-8 -0.5
q-78 6 -132.5 64.5t-54.5 137.5q0 55 27.5 102t74 74t102 27t102 -27t74 -74t27.5 -102q0 -79 -54.5 -137.5t-132.5 -64.5zM488 298q12 6 24 14l6 -4q3 -2 6 -3.5t6 -3.5t6 -3l-24 -10q-3 1 -6 2.5t-6 2.5t-6 2.5t-6 2.5zM662 316q-8 1 -16 1q-5 0 -9 -0.5t-8 -0.5
q-56 5 -86 19q2 3 4.5 5t5.5 4q72 72 72 174q0 33 -8.5 64t-24.5 59t-39 51q-2 1 -3 2.5t-2 2.5q22 12 46.5 18t51.5 6q55 0 101.5 -27t74 -74t27.5 -102q0 -79 -54.5 -137.5t-132.5 -64.5zM834 63z" />
    <glyph glyph-name="uniE630" unicode="&#xe630;" 
d="M660 744h-44v99v1q-6 6 -25 3v44v-44h-150q-23 0 -29 -6v-97h-44v95q-1 17 10 30q10 11 25.5 16.5t37.5 5.5h151q29 0 41 -6q27 -13 27 -42v-99zM8 686h1013v-46h-1013v46zM793 -118h-1h-525q-28 0 -49 4.5t-34 13.5q-4 3 -7 5.5t-5 5t-4 5.5l-2 5l-2 4q-1 2 -1 3v3v1
v716h44v-710q14 -12 60 -12h526q13 1 21 8q7 7 7 21v693h44v-693q0 -33 -20 -52q-21 -21 -52 -21zM368 486h44v-405h-44v405zM616 486h44v-405h-44v405z" />
    <glyph glyph-name="uniE631" unicode="&#xe631;" 
d="M856 668h-780q-13 0 -22.5 9.5t-9.5 23t9.5 22.5t22.5 9h780q14 0 23 -9t9 -22.5t-9 -23t-23 -9.5zM513 340h-437q-8 0 -15.5 4t-12 11.5t-4.5 16t4.5 16t12 12t15.5 4.5h437q9 0 16.5 -4.5t11.5 -12t4 -15.5q0 -14 -9 -23t-23 -9zM388 8h-312q-13 0 -22.5 9.5t-9.5 23
t9.5 22.5t22.5 9h312q13 0 22.5 -9t9.5 -22.5t-9.5 -23t-22.5 -9.5zM640 340q-12 0 -21 8q-5 4 -7.5 10t-3 12t1.5 12t7 11l137 155q4 5 9.5 7.5t12 3t12.5 -1.5t11 -7q10 -8 10.5 -21.5t-8.5 -23.5l-137 -155q-1 -1 -3 -2l-4 -4l-4 -2t-4 -1.5t-4 -0.5h-5zM926 346
q-13 0 -23 9l-148 149q-6 6 -8.5 14.5t0 16.5t8.5 14q9 10 22.5 10t22.5 -10l149 -148q9 -10 9 -23t-9 -23q-2 -1 -4 -2.5t-4.5 -3t-4.5 -1.5l-6 -2h-4zM777.5 8q-13.5 0 -22.5 9.5t-9 22.5v486q0 14 9 23t22.5 9t23 -9t9.5 -23v-486q0 -13 -9.5 -22.5t-23 -9.5z" />
    <glyph glyph-name="uniE632" unicode="&#xe632;" 
d="M952 331q2 -5 2 -10v-366q0 -33 -27.5 -56.5t-60.5 -23.5h-220h-263h-220q-32 0 -59.5 23.5t-27.5 56.5v366q0 5 1 10q-22 26 -38.5 62t-25 73t-8.5 70l211 357h597l211 -357q0 -51 -19.5 -109t-52.5 -96zM128 -45q0 -9 11.5 -18t23.5 -9h703q12 0 23.5 9t11.5 18v338
q-17 -7 -35 -7q-77 0 -126.5 36t-49.5 107q0 -48 -24 -81t-62.5 -48t-88.5 -15q-78 0 -127 36.5t-49 107.5q0 -71 -49 -107t-127 -36q-18 0 -35 7v-338zM783 840h-5h-532l-188 -318q5 -64 37 -123.5t68 -59.5q21 0 39.5 3.5t39 12t32.5 27.5t12 47q0 8 3 16.5t7.5 15
t11 11.5t14.5 7.5t17 2.5q11 0 20.5 -4t16.5 -11.5t11.5 -17t4.5 -20.5q0 -28 12 -47t32.5 -28t39 -12t39.5 -3q13 0 25 1t27 4.5t27 10t22 16t16 24.5t6 34q0 11 4 20.5t11 17t17 11.5t20 4q22 0 37.5 -15.5t15.5 -38t8.5 -39t21 -26t30.5 -15t32.5 -7.5t30.5 -2
q36 0 68.5 59.5t36.5 123.5zM864 545h-698q-11 0 -19 8t-8 19q0 5 2.5 10t6 8.5t8 5.5t10.5 2h698q5 0 10 -2t8.5 -5.5t5.5 -8.5t2 -10q0 -11 -7.5 -19t-18.5 -8z" />
    <glyph glyph-name="uniE633" unicode="&#xe633;" 
d="M326 616q-41 -53 -58.5 -99t-16 -69.5t10.5 -41.5q10 -21 28 -32t36 -11h2q52 2 83 43v114q0 7 5 11.5t11.5 4.5t11 -4.5t4.5 -11.5v-115q26 -39 73 -39q43 0 69 35v119q0 7 5 11.5t11 4.5q3 0 6 -1t5.5 -3t3.5 -5t1 -7v0v-110q6 -5 13.5 -11t20.5 -14.5t28.5 -14
t29.5 -5.5q26 0 45 22q13 15 15 38.5t-4 48.5t-17.5 53.5t-23 49.5t-22.5 39h-376zM511 890q-210 0 -359 -149t-149 -359t149 -359t359 -149t359 149t149 359t-149 359t-359 149zM741 177q0 -12 -4.5 -23.5t-13 -19.5t-19.5 -13t-24 -5h-338q-26 0 -43.5 18t-17.5 43v120
q0 4 2 8t5.5 6t8.5 2q6 0 11 -4.5t5 -11.5v-116q0 -14 9.5 -23.5t22.5 -9.5h193h139q13 0 22.5 9.5t9.5 23.5v116v0q0 7 5 11.5t11 4.5q5 0 8.5 -2t5.5 -6t2 -8v-120zM779 366q-29 -33 -70 -33q-28 0 -54.5 13t-48.5 31q-35 -43 -90 -43q-54 0 -89 41q-40 -41 -98 -44h-3
q-29 0 -54 16.5t-39 43.5q-8 17 -10.5 37.5t1 51.5t24 73t57.5 89l5 6h409l5 -7q6 -9 15 -24t26.5 -52t27 -69.5t8 -69.5t-21.5 -60z" />
    <glyph glyph-name="uniE634" unicode="&#xe634;" 
d="M830 769l-7 10h-611l-7 -9q-55 -70 -86 -133t-36.5 -109.5t-1 -76.5t16.5 -55q5 -11 12.5 -22t16 -20t18.5 -16.5t21 -13t22 -10t23.5 -6.5t24.5 -2h5q48 2 84.5 21t60.5 44q53 -61 133 -61q25 0 47 6t39 16.5t28.5 20.5t20.5 21q14 -11 29 -21t35 -21t43.5 -17.5
t45.5 -6.5q62 0 105 50q21 26 28.5 62t3 71.5t-17.5 77t-27 72.5t-31.5 63t-25 44.5t-12.5 20.5zM875 389q-14 -16 -31 -24.5t-37 -8.5q-17 0 -36 6t-34 14t-30 18.5t-23 17t-14 12.5v163v1q0 7 -3 12.5t-8.5 8.5t-12 3t-12 -3t-8.5 -8.5t-3 -12.5h-1v-177
q-8 -12 -19.5 -22.5t-34.5 -20.5t-49 -10q-23 0 -42.5 6.5t-33 17.5t-20.5 19t-12 15v172q0 4 -1 8t-3.5 7t-5.5 5t-6.5 3t-7.5 1q-6 0 -11.5 -3t-9 -8.5t-3.5 -12.5v-171q-3 -5 -8 -10t-13 -12.5t-18.5 -14t-23 -12.5t-28.5 -9.5t-33 -4.5h-3q-27 0 -53.5 16t-41.5 47
q-10 20 -13 44.5t2.5 63t32 92.5t73.5 115h561q17 -27 33.5 -59t34 -74t26.5 -79t6 -73t-22 -58zM832 279q-10 0 -17 -7t-7 -17v0v-174q0 -20 -14.5 -34t-34.5 -14h-206h-288q-20 0 -34.5 14t-14.5 34v174q0 7 -3 12.5t-8.5 8.5t-12 3t-12 -3t-9 -8.5t-3.5 -12.5v-178
q0 -38 27 -65t65 -27h504q38 0 65 27t27 65v178q0 10 -7 17t-17 7z" />
    <glyph glyph-name="uniE635" unicode="&#xe635;" horiz-adv-x="1027" 
d="M174 572v36h-4l-9 2q-6 1 -12.5 2.5t-14 5.5t-12.5 9q-15 15 -14 42q0 11 2 17.5t7.5 11t10 6t14.5 5.5q11 4 17.5 7t16 10t14 19.5t4.5 29.5q0 12 -3 22.5t-8.5 19.5t-13.5 16q-32 28 -81 23l4 -35q2 -1 9.5 -0.5t21 -3t22.5 -11.5q2 -2 4 -4.5t4 -5.5t3 -6.5t1.5 -7.5
t0.5 -8q0 -15 -5 -20t-23 -11q-12 -4 -19 -7.5t-17.5 -11.5t-16 -21.5t-5.5 -32.5q-1 -21 5.5 -38t19.5 -30q29 -30 77 -30zM437 572h1l-1 36q-2 0 -9 0.5t-20.5 5.5t-21.5 13q-15 15 -14 42q0 14 4.5 22t10 10.5t19.5 7.5q11 4 17.5 7t16 10t14 19.5t4.5 29.5q0 7 -1.5 14
t-3.5 13t-5 11.5t-7 10.5t-9 9q-31 28 -80 23l3 -35q3 -1 10.5 -0.5t21 -3t22.5 -11.5q4 -3 7 -8t4.5 -11t1.5 -13q0 -15 -5 -20t-23 -11q-12 -4 -19 -7.5t-17.5 -11.5t-16 -21.5t-5.5 -32.5q-1 -21 5.5 -38t18.5 -30q30 -30 77 -30zM693 572h1l-1 36q-3 0 -9.5 0.5
t-20.5 5.5t-22 13q-15 15 -14 42q0 14 5 22t10.5 10.5t18.5 7.5q11 4 17.5 7t16 10t14 19.5t4.5 29.5q0 9 -2 17.5t-5 15.5t-7.5 13.5t-10.5 11.5q-32 28 -81 23l4 -35q2 -1 9.5 -0.5t21 -3t22.5 -11.5q6 -5 9.5 -13t3.5 -19q0 -15 -5 -20t-23 -11q-12 -4 -19 -7.5
t-17.5 -11.5t-16 -21.5t-5.5 -32.5q-1 -21 5.5 -38t19.5 -30q29 -30 77 -30zM912 534q-7 0 -14 -1t-13.5 -2.5t-13 -4t-12 -6t-11 -7.5t-10.5 -8v5v18h-36h-784v-242q-1 -42 10 -96q25 -110 94 -183q108 -112 307 -112q194 0 301 112q72 75 97 193q13 57 11 102v46
q31 -30 74 -30q45 0 76.5 32t31.5 76.5t-31.5 76t-76.5 31.5zM704 32q-97 -101 -275 -101q-183 0 -280 101q-63 65 -85 165q-11 51 -10 88v1v206h748v-191v-19q0 -12 -4.5 -45t-14 -64.5t-30 -71t-49.5 -69.5zM912 354q-8 0 -16 2t-15.5 5.5t-13.5 8.5t-11 11.5t-8.5 13.5
t-5.5 15t-2 16q0 30 21 51t51 21t51 -21t21 -50.5t-21 -51t-51 -21.5z" />
    <glyph glyph-name="uniE636" unicode="&#xe636;" horiz-adv-x="1027" 
d="M174 572v36q-3 0 -10 0.5t-20 5.5t-22 13q-15 15 -14 42q0 14 5 22t10.5 10.5t18.5 7.5q11 4 17.5 7t16 10t14 19.5t4.5 29.5q-1 18 -7 33t-18 25q-32 28 -81 23l4 -35q2 -1 9.5 -0.5t21 -3t22.5 -11.5q4 -3 7 -8t4.5 -11t1.5 -13q0 -8 -1 -13t-5 -8.5t-8 -5t-14 -4.5
q-12 -4 -19 -7.5t-17.5 -11.5t-16 -21.5t-5.5 -32.5q-1 -21 5.5 -38t19.5 -30q29 -30 77 -30zM437 572h1l-1 36q-2 0 -9 0.5t-20.5 5.5t-21.5 13q-15 15 -14 42q0 9 1.5 15t4 9.5t7.5 6.5t8.5 4.5t12.5 4.5q11 4 17.5 7t16 10t14 19.5t4.5 29.5q0 7 -1.5 14t-3.5 13t-5 11.5
t-7 10.5t-9 9q-31 28 -80 23l3 -35q3 -1 10.5 -0.5t21 -3t22.5 -11.5q4 -3 7 -8t4.5 -11t1.5 -13q0 -15 -5 -20t-23 -11q-9 -3 -14.5 -5t-15 -8t-14.5 -13t-9.5 -19.5t-4.5 -27.5q-1 -21 5.5 -38t19 -30t31.5 -20t28.5 -8.5t16.5 -1.5zM693 572h1l-1 36q-3 0 -9.5 0.5
t-20.5 5.5t-22 13q-15 15 -14 42q0 14 5 22t10.5 10.5t18.5 7.5q11 4 17.5 7t16 10t14 19.5t4.5 29.5q0 5 -0.5 10t-2.5 9l-2 10l-4 8t-4.5 8t-5.5 7l-6 6q-32 28 -81 23l4 -35q2 -1 9.5 -0.5t21 -3t22.5 -11.5q4 -3 7 -8t4.5 -11t1.5 -13q0 -15 -5 -20t-23 -11
q-9 -3 -14.5 -5t-14.5 -8t-14.5 -13t-10 -19.5t-4.5 -27.5q-1 -21 5.5 -38t19.5 -30q29 -30 77 -30zM912 534q-8 0 -16.5 -1t-16.5 -3.5t-15 -6.5t-13.5 -8.5t-12.5 -9.5v5v18h-36h-784v-242q-1 -42 10 -96q25 -110 94 -183q108 -112 307 -112q194 0 301 112q72 75 97 193
q13 57 11 102v46q31 -30 74 -30q45 0 76.5 32t31.5 76q0 15 -4 29t-11 26t-17 21.5t-21.5 16.5t-25.5 11t-29 4zM912 354q-30 0 -51 21.5t-21 51t21 50.5t51 21q15 0 28 -5.5t23 -15t15.5 -23t5.5 -28t-5.5 -28t-15.5 -23t-23 -15.5t-28 -6z" />
    <glyph glyph-name="uniE637" unicode="&#xe637;" horiz-adv-x="1117" 
d="M15 881zM569 256q-7 0 -13 6l-433 419q-3 3 -4.5 7.5t0 9.5t4.5 8q5 6 12.5 6t13.5 -5l420 -407l409 414q5 5 12.5 5.5t12.5 -5t5.5 -13t-5.5 -12.5l-421 -427q-5 -6 -13 -6zM983 -12h-845q-35 0 -59.5 24.5t-24.5 59.5v570q0 35 24.5 59.5t59.5 24.5h845q34 0 59 -24.5
t25 -59.5v-120q0 -9 -6.5 -15t-14.5 -6q-6 0 -11 2.5t-7.5 7.5t-2.5 11v120q0 12 -6 21.5t-15.5 15t-20.5 5.5h-845q-18 0 -30 -12t-12 -30v-570q0 -18 12 -30t30 -12h845q17 0 29.5 12t12.5 30v267q0 9 6 15t15 6q5 0 10 -3t8 -7.5t3 -10.5v-267q0 -35 -25 -59.5t-59 -24.5
z" />
    <glyph glyph-name="uniE638" unicode="&#xe638;" horiz-adv-x="1035" 
d="M927 -124h-739q-109 0 -157 50q-32 33 -31 72v757q0 74 70 109q31 15 64 17h1h565v-215h334v-645q0 -71 -51 -115q-11 -9 -24 -16.5t-18.5 -9.5t-9.5 -3zM64 -3q1 -14 13 -27q13 -13 39.5 -21.5t71.5 -8.5h728q15 6 27 16q27 25 27 65v581h-334v216h-498q-22 -3 -41 -13
q-20 -10 -26.5 -22.5t-6.5 -27.5v-758zM668 598q-374 2 -490 2q-87 0 -140 58q-27 29 -37 60l62 19h-1q2 -3 4.5 -8.5t11.5 -18t20.5 -22t33 -17t46.5 -7.5q116 0 490 -2v-64zM980 38h-312q-38 0 -68 11q-12 4 -23 10.5t-21 14.5t-18 18q-53 62 -53 200q0 125 50 185
q29 35 63 40l2 1h380v-64h-374q-13 -5 -26 -22q-31 -44 -31 -140q0 -35 3.5 -63t10 -47.5t13.5 -33.5t18 -22.5t19 -14t20 -7.5t19 -2h16h312v-64zM769 176q-44 0 -75.5 31t-31.5 75.5t31.5 76t75.5 31.5t75.5 -31.5t31.5 -76t-31.5 -75.5t-75.5 -31zM769 326
q-12 0 -21.5 -6t-15.5 -16t-6 -22q0 -17 12.5 -29.5t30.5 -12.5q9 0 17 3t13.5 9t9 14t3.5 16q0 18 -12.5 31t-30.5 13z" />
    <glyph glyph-name="uniE639" unicode="&#xe639;" 
d="M523 384v302q0 9 -4.5 17t-12.5 12t-17 4q-14 0 -23.5 -9.5t-9.5 -23.5v-335q0 -7 2.5 -13.5t7 -11t10.5 -7t13 -2.5h6h5h224q14 0 24 10t10 23.5t-10 23.5t-24 10h-201zM511.5 -108q-80.5 0 -155.5 25t-135.5 70.5t-106 106t-70 135.5t-24.5 155q0 100 39 191t104.5 157
t157 105t191.5 39t191 -39t157 -105t105 -157t39 -191q0 -80 -25 -155t-70.5 -135.5t-106 -106t-135.5 -70.5t-155.5 -25zM511.5 -41q115.5 0 213.5 57t155 155t57 213q0 176 -124.5 300.5t-300.5 124.5q-116 0 -214 -57t-154.5 -155t-56.5 -213t56.5 -213t154.5 -155
t213.5 -57z" />
    <glyph glyph-name="uniE63A" unicode="&#xe63a;" horiz-adv-x="1025" 
d="M508.5 651q-74.5 0 -127.5 -53t-53 -127.5t53 -127t127.5 -52.5t127 52.5t52.5 127t-52.5 127.5t-127 53zM508 331q-58 0 -99 41t-41 99q0 38 19 70t51 51t70 19q58 0 99 -41t41 -99t-41 -99t-99 -41zM981 579q-38 91 -109 161q-35 35 -75.5 62.5t-85.5 46.5
q-47 20 -96.5 30t-101 10t-101 -10t-96.5 -30q-91 -39 -161 -109q-23 -23 -43 -49t-36.5 -54t-29.5 -58q-40 -94 -40 -197.5t40 -197.5q39 -91 109 -161.5t161 -108.5q47 -20 96.5 -30t101.5 -10q103 0 197 40q91 38 161 109q35 35 62.5 75.5t46.5 85.5q40 94 40 197.5
t-40 197.5zM514 -90q-171 0 -302 109q25 48 73 94q98 95 227 95q127 0 222 -106q39 -44 65 -96q-40 -30 -85.5 -51.5t-96.5 -33t-103 -11.5zM830 33q-11 21 -27.5 45.5t-37.5 48.5q-47 53 -103 83q-70 38 -150 38q-27 0 -52.5 -4t-50 -11t-47.5 -18q-28 -14 -54.5 -32
t-50.5 -41q-45 -44 -75 -95q-123 122 -138 294q-2 20 -2 40q0 96 37.5 183.5t100.5 150.5t150.5 100.5t183 37.5t183 -37.5t150.5 -100.5t100.5 -150.5t37.5 -183.5q0 -101 -41 -191.5t-114 -156.5z" />
    <glyph glyph-name="uniE63B" unicode="&#xe63b;" 
d="M883 -128h-739q-42 0 -71 29t-29 71v426q0 42 29 71t71 29h739q42 0 71 -29t29 -71v-426q0 -42 -29 -71t-71 -29zM144 435q-14 0 -26 -11.5t-12 -25.5v-426q0 -14 12 -25.5t26 -11.5h739q14 0 25.5 11.5t11.5 25.5v426q0 14 -11.5 25.5t-25.5 11.5h-739zM733 467v144
q0 29 -8.5 57.5t-22.5 52.5t-34.5 44t-44.5 34.5t-52 22.5t-58 8q-89 0 -154 -65t-65 -154v-144h-62v144q0 77 37.5 142t102 102.5t141.5 37.5q47 0 90 -14.5t77.5 -40.5t60.5 -60.5t40 -77.5t14 -89v-144h-62zM513 85q-4 0 -7.5 0.5t-6.5 2t-5.5 3.5t-5 5t-3.5 6t-2 6.5
t-1 7.5v144q0 14 8.5 22.5t22.5 8.5t23 -8.5t9 -22.5v-144q0 -14 -9 -22.5t-23 -8.5zM513 54q-13 0 -23.5 4.5t-20 14t-14 19.5t-4.5 24q0 25 19 44q12 12 27.5 16.5t31.5 0t28 -16.5q10 -10 14.5 -20t4.5 -24q0 -25 -19 -43.5t-44 -18.5z" />
    <glyph glyph-name="uniE63C" unicode="&#xe63c;" 
d="M880 -128h-2h-761q-20 0 -35 6.5t-24 16.5q-25 26 -25 65v839q0 50 28 76q23 22 53 21h568v-54h-569q-9 0 -15 -6t-8.5 -15t-2.5 -22v-839q0 -18 10 -27q0 -1 1 -1.5t2.5 -2t3.5 -2t5.5 -1t7.5 -0.5h760q10 11 10 49v493h54v-493q0 -65 -29 -90q-14 -13 -32 -13zM234 105
q-12 0 -19 8q-6 5 -7.5 12t0 14t7.5 12l735 734q8 8 19.5 8t18.5 -8q6 -5 7.5 -12t0 -14t-7.5 -12l-735 -734q-4 -4 -9 -6t-10 -2z" />
    <glyph glyph-name="uniE63D" unicode="&#xe63d;" 
d="M934 -121h-2h-800q-47 0 -71 28q-22 25 -18 60v794q0 40 25 65q27 26 67 26h119v-50h-119q-3 0 -6.5 -0.5t-8.5 -2t-9.5 -4t-8.5 -5.5q-9 -10 -9 -29v-797l-1 -2q1 -1 0.5 -4.5t1 -9t5.5 -8.5q5 -6 14 -8.5t19 -2.5h802h1q7 1 12.5 14t5.5 36v771q1 23 -13 37
q-15 15 -46 15h-118v50h118q53 0 82 -31q29 -30 27 -73v-769q0 -58 -28 -84q-18 -16 -41 -16zM263 595h505v-50h-505v50zM263 417h505v-50h-505v50zM263 226h505v-50h-505v50zM323 827q0 26 18.5 44.5t44.5 18.5h259q13 0 24.5 -5t20 -13.5t13.5 -20t5 -24.5v-14
q0 -26 -18.5 -44.5t-44.5 -18.5h-259q-18 0 -32.5 8.5t-22.5 23t-8 31.5v14zM347 821q0 26 18.5 44.5t44.5 18.5h196q26 0 44.5 -18.5t18.5 -44.5v-2q0 -26 -18.5 -44.5t-44.5 -18.5h-196q-18 0 -32.5 8.5t-22.5 23t-8 31.5v2z" />
    <glyph glyph-name="uniE63E" unicode="&#xe63e;" 
d="M317 -95h-276v273l8 7q584 565 651 639q22 24 44.5 36.5t46.5 12.5q9 0 18 -2t15 -5t12 -6.5t9 -6t6 -4.5q78 -61 129 -118q21 -23 25 -52t-9 -60q-11 -30 -31 -52l-1 -1zM91 -45h205l632 646q15 17 22 37q14 36 -7 60q-49 55 -124 112l-2 2l-1 1q-1 1 -3 2t-5 3
t-7.5 3.5t-9.5 1.5q-12 0 -26 -8.5t-28 -23.5q-66 -74 -646 -635v-201zM156 240l220 -225l-35 -35l-221 225z" />
    <glyph glyph-name="uniE63F" unicode="&#xe63f;" 
d="M989 -88zM989 -110h-954q-13 0 -22.5 9.5t-9.5 22.5t9.5 22.5t22.5 9.5h954q13 0 22.5 -9.5t9.5 -22.5t-9.5 -22.5t-22.5 -9.5zM8 -59l73 212l205 -213zM150 231l202 -209l444 443l-204 205zM659 748l202 -202l58 60q2 4 5.5 10t8 21t1.5 26q-2 9 -24 32.5t-46.5 46
t-49.5 46t-27 25.5q-25 25 -71 -13z" />
    <glyph glyph-name="uniE640" unicode="&#xe640;" 
d="M68 792zM131 -128q-24 0 -46 11q-41 22 -41 75v819q-4 49 26 82q31 35 89 35h742l1 -1q2 0 5 -0.5t9 -2t13.5 -5t14.5 -8.5q8 -5 14.5 -12t13 -17t10 -24.5t3.5 -31.5v-835v-1q0 -3 -0.5 -7t-3 -14t-6.5 -18q-21 -45 -67 -45h-776h-1zM159 846q-18 0 -31.5 -5t-21.5 -14
q-18 -19 -15 -47l1 -1v-821q0 -14 4.5 -21.5t11.5 -11.5q10 -5 23 -5v0h777q15 0 23 17q5 10 6 22v833q0 16 -5 27.5t-15 18.5q-5 3 -10.5 5t-8.5 3h-739zM568 624h242v-40h-242v40zM185 469h625v-40h-625v40zM185 319h625v-40h-625v40zM185 167h625v-40h-625v40z" />
    <glyph glyph-name="uniE641" unicode="&#xe641;" 
d="M944 877q-7 5 -14.5 8.5t-13.5 5t-9 2t-5 0.5l-1 1h-742q-58 0 -89 -35q-10 -11 -16 -25t-8 -24.5t-2.5 -20.5t0.5 -12v-819q0 -53 41 -75q22 -11 46 -11h1h776q46 0 67 45q4 8 6.5 18t3 14t0.5 7v1v835q0 22 -6.5 40t-15 28t-19.5 17zM185 279v40h625v-40h-625zM810 167
v-40h-625v40h625zM185 429v40h625v-40h-625zM568 584v40h242v-40h-242z" />
    <glyph glyph-name="uniE642" unicode="&#xe642;" 
d="M857 -83h-696q-48 0 -82 34t-34 82v696q0 49 34.5 85.5t82.5 36.5h467v-58h-467q-24 0 -41.5 -19.5t-17.5 -44.5v-696q0 -8 2 -15.5t5.5 -14t9 -12t12 -9t14 -5.5t15.5 -2h696q25 0 44.5 17.5t19.5 40.5v468h58v-468q0 -31 -17 -58t-45 -42.5t-60 -15.5zM510 198
q-11 -11 -30 -15l-254 -126q-21 -9 -35 5.5t-6 35.5l126 255q4 19 15 30l451 451q6 6 12.5 10t13.5 5.5t15 1.5t15 -1.5t13.5 -5.5t12.5 -10l103 -102q17 -17 17 -41t-17 -41zM241 134q-5 -11 2.5 -18.5t17.5 -2.5l157 95l-82 83zM387 321l62 -61l20 -21l328 328l-103 102
l-327 -327q5 -6 10 -10.5t10 -10.5zM900 711l-62 62q-5 5 -12.5 7t-15 0t-13.5 -7l-60 -60l101 -104l62 61q9 9 9 21t-9 20z" />
    <glyph glyph-name="uniE643" unicode="&#xe643;" 
d="M430 341l40 -40l1 -1l1 -1l1 -1l1 -1l1 -1v-1h1l1 -1l1 -1l1 -1l1 -1l1 -1l1 -1l1 -1l214 213l-67 67l-214 -214q3 -2 4 -4l3 -2l3 -2zM334 219q-3 -7 2 -12t12 -1l102 61l-54 54zM764 568q5 6 5 13.5t-5 13.5l-40 40q-6 6 -14 6t-13 -6l-39 -39l66 -68zM511 890
q-210 0 -359 -149t-149 -359t149 -359t359 -149t359 149t149 359t-149 359t-359 149zM737 675l67 -67q11 -11 11 -26.5t-11 -26.5l-294 -294q-2 -2 -4 -3l-6 -4q-2 -1 -4.5 -1.5t-5.5 -1.5l-165 -82q-14 -6 -23 3.5t-4 23.5l82 166q2 12 10 19l294 294q2 3 5.5 5t6.5 3.5
t7 2t7.5 0.5t7 -0.5t7 -2t6.5 -3.5t6 -5zM815 154q0 -31 -24 -53.5t-55 -22.5h-454q-31 0 -53 22t-22 53v454q0 32 22.5 55.5t53.5 23.5h304v-38h-304q-4 0 -8 -1t-7 -2.5t-6.5 -4t-6 -5.5t-4.5 -6t-3.5 -6.5t-2 -7.5t-0.5 -8v-454q0 -7 3 -14t8 -12t12 -8t14 -3h454
q16 0 28.5 11t12.5 27v304h38v-304z" />
    <glyph glyph-name="uniE644" unicode="&#xe644;" 
d="M511 890q-210 0 -359 -149t-149 -359t149 -359t359 -149t359 149t149 359t-149 359t-359 149zM774 150v-1v-1q-1 -2 -1.5 -5t-1.5 -7t-3 -7q-5 -12 -14.5 -18t-21.5 -6h-413h-1h-2q-2 0 -4.5 0.5t-5.5 1t-6 2t-6 2.5q-22 12 -22 39v430q-2 26 14 44q3 3 7 6t8.5 5
t9.5 3.5t10.5 2.5t11.5 1h396q12 -2 23 -9q5 -4 9.5 -9t8.5 -14.5t4 -21.5v-438zM737 612q-4 4 -10 5h-394q-19 0 -28 -10q-10 -10 -8 -25v-432q0 -12 9 -17q5 -3 12 -3v0h414q9 0 13 9q3 6 3 12v437q0 6 -1 10.5t-3.5 8t-6.5 5.5zM680 239h-333v21h333v-21zM680 319h-333
v21h333v-21zM680 398h-333v20h333v-20zM680 479h-129v21h129v-21z" />
    <glyph glyph-name="uniE645" unicode="&#xe645;" horiz-adv-x="1029" 
d="M519.5 -127q-103.5 0 -197.5 40q-92 39 -162.5 109.5t-108.5 161.5q-40 95 -40 198.5t40 197.5q38 92 108.5 162.5t162.5 108.5q94 40 197.5 40t198.5 -40q46 -19 86.5 -46.5t75.5 -62.5t62.5 -75.5t46.5 -86.5q40 -94 40 -197.5t-40 -198.5q-39 -91 -109 -162
q-35 -35 -75.5 -62.5t-86.5 -46.5q-95 -40 -198.5 -40zM520 827q-61 0 -118.5 -16t-106 -44.5t-90 -70t-70 -90t-44.5 -106t-16 -118.5q0 -169 113 -296q109 -122 270 -145q31 -4 62 -4q90 0 172.5 35.5t142 95t95 142t35.5 172.5t-35.5 172.5t-95 142.5t-142 95t-172.5 35z
M517 224q-7 0 -12.5 2.5t-10 7t-7 10t-2.5 12.5v433q0 13 9.5 22.5t22.5 9.5t22.5 -9.5t9.5 -22.5v-433q0 -13 -9.5 -22.5t-22.5 -9.5zM486 97.5q0 -13.5 9 -22.5t22.5 -9t22.5 9t9 22q0 7 -2.5 13t-6.5 10t-10 6.5t-13 2.5q-13 0 -22 -9t-9 -22.5z" />
    <glyph glyph-name="uniE646" unicode="&#xe646;" 
d="M512 -128q-139 0 -257 68.5t-186.5 186.5t-68.5 257t68.5 257t186.5 186.5t257 68.5t257 -68.5t186.5 -186.5t68.5 -257t-68.5 -257t-186.5 -186.5t-257 -68.5zM560 656q0 20 -14 34t-34 14t-34 -14t-14 -34v-352q0 -20 14 -34t34 -14t34 14t14 34v352zM512 160
q-20 0 -34 -14t-14 -34t14 -34t34 -14t34 14t14 34t-14 34t-34 14z" />
    <glyph glyph-name="uniE647" unicode="&#xe647;" 
d="M620 -18l-399 230h-118q-15 0 -25.5 10.5t-10.5 25.5v272q0 5 1.5 9.5t4 8.5t5.5 7.5t7 5.5t8.5 3.5t9.5 1.5h118l399 230v-804zM103 523q-3 0 -3 -3v-272q0 -3 3 -3h127l357 -206v690l-357 -206h-127zM625 -26l-405 233h-117q-17 0 -29 12t-12 29v272q0 7 2.5 13t6 11
t8.5 9t11 6t13 2h117l405 233v-820zM103 551q-13 0 -22 -9t-9 -22v-272q0 -13 9 -22t22 -9h119h1l392 -226v786l-393 -226h-119zM592 31l-364 209h-125q-8 0 -8 8v272q0 8 8 8h125l364 209v-706zM105 250h126h1l350 -202v672l-351 -202h-126v-268zM209 539h33v-310h-33v310z
M247 224h-43v320h43v-320zM214 234h23v300h-23v-300zM735 264l-14 30q28 13 44.5 39.5t16.5 57.5q0 16 -4 30.5t-12 27t-19.5 23t-25.5 16.5l14 30q37 -17 58.5 -52t21.5 -75q0 -41 -21.5 -75t-58.5 -52zM733 257l-19 39l5 2q27 13 42.5 38t15.5 55t-15.5 55t-42.5 38l-5 2
l19 39l4 -2q19 -9 34.5 -23t26 -31t16.5 -37t6 -41t-5.5 -41t-16.5 -37t-26.5 -30.5t-34.5 -23.5zM728 291l10 -20q33 17 52.5 49.5t19.5 70.5q0 25 -9 48t-25 42t-38 30l-10 -20q7 -5 14.5 -10t13.5 -11.5t11 -13.5t8.5 -14.5t6 -16t4 -17t1.5 -17.5q0 -32 -16 -58.5
t-43 -41.5zM791 134l-14 30q22 10 42 24t36 31t29 37t21.5 41.5t13.5 45.5t5 48q0 28 -6.5 56t-19 53t-29.5 46.5t-39.5 39.5t-47.5 30l14 30q73 -35 117 -104.5t44 -150.5q0 -83 -45.5 -153t-120.5 -104zM789 127l-18 39l4 2q66 30 105 90.5t39 132.5q0 28 -6.5 55
t-18.5 51.5t-29 46t-38.5 39t-46.5 29.5l-5 2l19 38l4 -2q21 -10 40.5 -23.5t35.5 -29.5t30 -34t24.5 -38.5t18 -42t11.5 -45t4 -46.5q0 -56 -21 -107t-59 -91.5t-89 -63.5zM784 161l10 -21q72 35 115 103t43 148q0 52 -19 100t-53.5 86.5t-81.5 61.5l-9 -21
q42 -21 73.5 -56t49 -79.5t17.5 -91.5q0 -73 -39.5 -135.5t-105.5 -94.5z" />
    <glyph glyph-name="uniE648" unicode="&#xe648;" 
d="M576 382q-8 0 -14 -6t-6 -13q0 -5 3 -9.5t7.5 -7.5t9.5 -3q7 0 12.5 3t8.5 7.5t3 9.5q0 7 -7 13t-17 6zM681 382q-4 0 -7.5 -2t-6 -4.5t-4 -6t-1.5 -6.5q0 -8 6 -14t13 -6q10 0 17 6t7 13.5t-7 13.5t-17 6zM379 521q-5 0 -10 -2t-9.5 -5t-7 -7.5t-2.5 -9.5q0 -11 9 -17.5
t20 -6.5q4 0 7 0.5t6 2t5 4t3.5 5t2 5.5t0.5 7q0 7 -3 12.5t-8.5 8.5t-12.5 3zM513 473q11 0 17.5 6.5t6.5 17.5q0 5 -1.5 9.5t-4.5 7.5t-7.5 5t-10.5 2q-11 0 -19.5 -7t-8.5 -17.5t8.5 -17t19.5 -6.5zM521 829q-91 0 -174 -35.5t-143 -95t-95.5 -142.5t-35.5 -174
t35.5 -174t95.5 -143t143 -95.5t174 -35.5t173.5 35.5t142.5 95.5t95.5 143t35.5 174q0 170 -113 297q-109 123 -271 146q-32 4 -63 4zM442 276q-19 0 -68 10l-66 -34l19 58q-77 54 -77 129q0 68 56 115.5t136 47.5q34 0 67 -10t58.5 -28t43.5 -43t24 -53q-10 1 -19 1
q-68 0 -115 -44.5t-47 -107.5q0 -20 5 -40q-9 -1 -17 -1zM724 209l14 -48l-52 29q-38 -9 -58 -9q-68 0 -115 40.5t-47 98t47 98t115 40.5q66 0 114.5 -41t48.5 -97q0 -60 -67 -111z" />
    <glyph glyph-name="uniE649" unicode="&#xe649;" horiz-adv-x="1025" 
d="M981 579q-38 91 -109 161q-35 35 -75.5 62.5t-85.5 46.5q-47 20 -96.5 30t-101 10t-101 -10t-96.5 -30q-91 -39 -161 -109q-23 -23 -43 -49t-36.5 -54t-29.5 -58q-40 -94 -40 -197.5t40 -197.5q39 -91 109 -161.5t161 -108.5q47 -20 96.5 -30t101.5 -10q103 0 197 40
q91 38 161 109q35 35 62.5 75.5t46.5 85.5q40 94 40 197.5t-40 197.5zM648 471q0 -58 -41 -99t-99 -41t-99 41t-41 99q0 38 19 70t51 51t70 19q58 0 99 -41t41 -99zM138 97q-5 6 -10 13l-8 12q-5 7 -9 14zM514 -90q-171 0 -302 109q25 48 73 94q98 95 227 95q127 0 222 -106
q39 -44 65 -96q-40 -30 -85.5 -51.5t-96.5 -33t-103 -11.5z" />
    <glyph glyph-name="uniE64A" unicode="&#xe64a;" 
d="M935 489h-70q-5 0 -11 4.5t-8 10.5l-14 33q-2 5 -1 12t5 11l49 49q15 15 15 36t-15 36l-76 76q-14 15 -35.5 15t-36.5 -15l-49 -49q-10 -10 -25 -3l-33 13q-1 1 -3 2t-3.5 2.5t-2.5 3.5l-2 4q-1 2 -1.5 3.5t-0.5 3.5v70q0 21 -15 36t-36 15h-108q-21 0 -36 -15t-15 -36
v-70q0 -5 -4.5 -11t-10.5 -8l-33 -14q-1 -1 -3 -1h-6q-3 0 -5.5 0.5t-4.5 1.5t-4 3l-49 49q-15 15 -36.5 15t-35.5 -15l-76 -76q-15 -15 -15 -36q0 -5 1 -10t3 -9.5t4.5 -8.5t6.5 -8l49 -49q3 -3 4 -7t1 -9t-2 -9l-13 -33q-1 -1 -2 -3t-2.5 -3.5t-3.5 -2.5t-3.5 -2
t-3.5 -1.5t-4 -0.5h-70q-11 0 -20 -4t-16 -11t-11 -16.5t-4 -19.5v-108q0 -21 15 -36t36 -15h70q3 0 7 -2t7.5 -5.5t4.5 -7.5l14 -33q2 -5 1 -12t-5 -11l-49 -49q-15 -15 -15 -36q0 -10 3.5 -19.5t11.5 -16.5l76 -76q14 -15 35.5 -15t36.5 15l49 49q10 10 25 3l33 -13
q3 -1 6 -4.5t5 -7.5t2 -7v-70q0 -21 15 -36t36 -15h108q14 0 25.5 7t18.5 18.5t7 25.5v70q0 3 2 7t5.5 7.5t7.5 4.5l33 14q2 1 5 1t6.5 -0.5t6.5 -1.5t5 -3l49 -50q15 -14 36 -14t36 15l76 76q15 15 15 36t-15 36l-49 49q-10 10 -3 25l13 33q2 5 8 9t11 4h70q11 0 20 4
t16 11t11 16.5t4 19.5v108q0 10 -4 19.5t-11 16.5t-16 11t-20 4zM944 330q0 -4 -2.5 -6.5t-6.5 -2.5h-70q-9 0 -18.5 -3t-17 -8.5t-13.5 -13t-9 -16.5l-13 -30q-3 -7 -4.5 -14.5t-1 -15.5t2.5 -15.5t6 -14t9 -12.5l50 -49q2 -3 2 -6.5t-2 -5.5l-77 -77q-6 -6 -12 0l-49 50
q-13 12 -35 15.5t-36 -3.5l-30 -12q-18 -7 -30 -23.5t-12 -35.5v-70q0 -4 -2.5 -6.5t-6.5 -2.5h-108q-9 0 -9 9v70q0 12 -5.5 24t-14.5 21t-21 13l-30 12q-12 7 -27 7q-27 0 -45 -18l-49 -50q-6 -6 -12 0l-77 77q-1 1 -1.5 3t-0.5 3q0 3 2 6l50 49q9 9 13.5 21.5t4 25.5
t-5.5 24l-12 30q-6 18 -23 30t-36 12h-70q-9 0 -9 9v108q0 9 9 9h70q12 0 24 5.5t21 14.5t13 21l13 30q8 17 4.5 37.5t-16.5 34.5l-50 49q-2 3 -2 6.5t2 5.5l77 77q6 6 12 0l49 -50q13 -12 35 -15.5t36 3.5l30 12q18 6 30 23t12 36v70q0 9 9 9h108q4 0 6.5 -2.5t2.5 -6.5
v-70q0 -12 5.5 -24t14.5 -21t21 -13l30 -13q16 -8 37 -4.5t35 16.5l49 50q6 6 12 0l77 -77q2 -2 2 -5.5t-2 -6.5l-50 -50q-13 -13 -16.5 -33.5t4.5 -36.5l12 -30q3 -7 7 -13.5t10 -12t13 -9t14.5 -5.5t14.5 -2h70q3 0 5 -1.5t3 -3.5t1 -4v-108zM512 548q-22 0 -43.5 -6
t-39.5 -16.5t-33 -25.5t-25.5 -33t-16.5 -39.5t-6 -43.5q0 -68 48 -116t116 -48q33 0 63.5 13t52.5 35t35 52.5t13 63.5q0 68 -48 116t-116 48zM512 262q-50 0 -86 36t-36 86q0 33 16.5 61t44.5 44.5t61 16.5t61 -16.5t44.5 -44.5t16.5 -61q0 -50 -36 -86t-86 -36z" />
    <glyph glyph-name="uniE64B" unicode="&#xe64b;" 
d="M693 549q15 0 35 -2q-23 109 -127.5 181.5t-238.5 72.5q-98 0 -181 -40.5t-132 -111.5t-49 -156q0 -143 145 -245l-36 -109l127 64q6 -2 25 -5.5t27 -5t22.5 -4t26.5 -3t25 -0.5q16 0 34 1q-5 19 -8 38t-3 38q0 119 89.5 203t218.5 84zM498 647q14 0 24 -5.5t16 -16
t6 -23.5q0 -10 -3.5 -18.5t-9.5 -14.5t-14.5 -9.5t-18.5 -3.5q-21 0 -37.5 13t-16.5 32.5t16.5 32.5t37.5 13zM245 556q-22 0 -38.5 13t-16.5 33q0 13 8 23.5t20.5 16t26.5 5.5q20 0 32.5 -12.5t12.5 -32.5q0 -36 -32 -44q-7 -1 -13 -2zM1024 266q0 71 -43 132t-113.5 96
t-151.5 35q-129 0 -218.5 -77t-89.5 -186t89.5 -186t218.5 -77q37 0 109 18l99 -54l-27 91q127 95 127 208zM616 312q-13 0 -24.5 11t-11.5 25q0 6 3 13t8 12t12 8t13 3q20 0 33 -11t13 -25q0 -7 -3.5 -13.5t-9.5 -11.5t-14.5 -8t-18.5 -3zM815 312q-5 0 -10 2t-9.5 5.5
t-8.5 8t-6 10t-2 10.5q0 13 11.5 24.5t24.5 11.5q20 0 33 -11t13 -25t-13 -25t-33 -11z" />
    <glyph glyph-name="uniE64C" unicode="&#xe64c;" 
d="M512 832q-73 0 -141.5 -22.5t-123.5 -64t-96.5 -96.5t-64 -123.5t-22.5 -141.5q0 -91 35.5 -174t95.5 -143t143 -95.5t174 -35.5q52 0 102.5 12t94.5 34t83 52.5t69.5 69.5t52.5 83t34 94.5t12 102.5q0 170 -113 298q-110 123 -272 145q-32 5 -63 5zM536 125h-72v72h72
v-72zM650 445q-8 -14 -23.5 -31.5t-38.5 -37.5q-31 -27 -40 -40q-2 -3 -4.5 -6.5t-3.5 -7.5l-4 -8l-2 -8q-1 -3 -1.5 -6t-1 -7t-1 -8.5t-1 -10t-0.5 -10.5v-12h-61v18v12q0 6 1 12t1.5 11t1.5 10l4 10q1 5 2 9q8 21 25 41q13 15 45.5 44t42.5 46t10 38q0 5 -0.5 10t-2 10
t-3 9.5t-4 9t-5.5 9t-6.5 8.5t-7.5 8q-14 14 -31.5 21t-38.5 7q-14 0 -26 -2.5t-22.5 -8.5t-18.5 -14q-27 -25 -36 -79l-65 8q2 14 5 27t7.5 25t10.5 22t13.5 19t15.5 17q44 38 115 38q75 0 119.5 -41t44.5 -99q0 -34 -15 -62z" />
    <glyph glyph-name="uniE64D" unicode="&#xe64d;" 
d="M514 891q-188 0 -330 -122q-137 -116 -170 -292q-9 -47 -9 -96q0 -103 40 -197.5t108.5 -162.5t162.5 -108.5t198 -40.5t198 40.5t162.5 108.5t109 162.5t40.5 198t-40.5 198t-109 162.5t-162.5 108.5t-198 40.5zM514 117q-17 0 -29 11.5t-12 28.5t12 29t29 12
q11 0 20.5 -5.5t15 -15t5.5 -20.5q0 -8 -3.5 -15.5t-9 -13t-13 -8.5t-15.5 -3zM595 395q-30 -30 -39 -42.5t-12 -25t-5 -47.5h-45q2 50 16 76.5t56 65.5q46 44 46 92q0 42 -29.5 69.5t-72.5 27.5q-56 0 -86 -35t-29 -93h-45q1 77 43.5 121.5t118.5 44.5q24 0 45.5 -6t40 -17
t31.5 -27t20.5 -37t7.5 -45q0 -26 -8.5 -48t-21 -38.5t-32.5 -35.5z" />
    <glyph glyph-name="uniE64E" unicode="&#xe64e;" 
d="M511.5 841q89.5 0 171.5 -33q86 -35 151.5 -100.5t100.5 -151.5q33 -82 33 -171.5t-33 -171.5q-35 -86 -100.5 -151.5t-151.5 -100.5q-82 -33 -171.5 -33t-171.5 33q-86 35 -151.5 100.5t-100.5 151.5q-8 20 -14.5 41t-10.5 42.5t-6 43.5t-2 45q0 89 33 171
q35 86 100.5 151.5t151.5 100.5q82 33 171.5 33zM511 892q-185 0 -326 -119q-17 -14 -32 -30q-98 -97 -132.5 -227.5t0 -261.5t132.5 -228q73 -73 166 -111t192.5 -38t192.5 38t166 111q59 58 95.5 131t47.5 150.5t0 154.5t-47.5 150t-95.5 131q-73 73 -166 111t-193 38z
M512 647q-72 0 -115 -39q-15 -13 -25.5 -29.5t-17.5 -37t-10 -44.5l66 -8q8 54 35.5 79.5t67.5 25.5q42 0 71 -28t29 -65q0 -21 -10 -38q-5 -9 -15.5 -20.5t-27.5 -25.5q-33 -29 -45 -45q-18 -21 -25 -41q-11 -27 -11 -65v-8v-11h61q1 13 1.5 23.5t1.5 18.5t3 13q4 17 14 30
q2 3 4.5 6t6.5 7l9 9q4 4 9 8.5t11 10.5q24 21 39.5 38t23.5 31.5t12 30t4 32.5q0 59 -46 100q-15 14 -33.5 23t-40.5 14t-47 5zM512 201q-8 0 -15.5 -3.5t-12.5 -8.5t-8 -12.5t-3 -14.5q0 -11 5 -20t14 -14t19.5 -5t19.5 5t14.5 14t5.5 20q0 16 -11.5 27.5t-27.5 11.5z" />
    <glyph glyph-name="uniE64F" unicode="&#xe64f;" 
d="M932 546q-7 10 -19 10q-8 0 -14 -4q-8 -6 -9.5 -15.5t3.5 -17.5q72 -104 41 -206q-8 -25 -22 -47.5t-34 -41.5t-45.5 -34.5t-55.5 -26.5q-31 -11 -64.5 -16.5t-69.5 -5.5h-5h-6h-4h-6h-5q82 24 145 71q29 22 52 47.5t39 54.5q17 30 25.5 62.5t8.5 65.5q0 67 -34 127
q-33 58 -91 102q-123 92 -295.5 92t-295.5 -92q-58 -44 -91 -102q-11 -20 -19 -41t-11.5 -42.5t-3.5 -43.5q0 -79 47 -149q45 -67 125 -111q-1 -8 -4 -18t-6.5 -17.5t-9 -17.5t-8.5 -15t-8 -14l-3 -4l-2 -4l-2 -4q-1 -1 -1.5 -2t-0.5 -2q-3 -8 -3 -17q0 -19 13.5 -32.5
t32.5 -13.5h6l4 1q38 6 79 29.5t60 40.5t34 32q34 -4 68 -4h5h4h4q2 -1 3.5 -1.5t3.5 -1.5q78 -24 156 -24q80 0 150 26q69 24 117 70q24 23 41.5 51t27.5 59q18 60 6 123.5t-53 123.5zM222 75q44 73 45 117v4q-1 14 -13 21q-75 38 -118 98t-43 127q0 74 50 137t136 100
t187.5 37t187.5 -37t136 -100t50 -137t-50 -137.5t-136 -100t-187 -36.5q-18 0 -36.5 1.5t-37.5 3.5q-1 1 -3 1q-11 0 -18 -9q-11 -13 -30 -30.5t-54 -38.5t-67 -27h-2zM221 27v2v-2zM473 580q10 0 16.5 7t6.5 16q0 6 -3 11t-8.5 8t-11.5 3q-115 0 -199 -53q-20 -13 -36 -28
t-27 -31q-24 -35 -24 -73q0 -10 7 -16.5t16 -6.5t15.5 6.5t6.5 16.5q0 54 71 97q17 10 37.5 18t42 13.5t44.5 8.5t46 3z" />
    <glyph glyph-name="uniE650" unicode="&#xe650;" 
d="M521 893q-77 0 -148 -31t-123 -83.5t-83 -124.5t-31 -149q0 -44 11.5 -92t27.5 -88.5t46 -90t53.5 -84t63 -84t61.5 -75t62 -71.5q12 -13 17 -20q2 -2 7.5 -7t18 -11.5t25.5 -6.5h2q28 0 50 25q45 52 83.5 100.5t84 115.5t77 128t52.5 130.5t21 130.5q0 79 -25.5 149.5
t-72.5 123.5t-119.5 84t-160.5 31zM517.5 318q-82.5 0 -141 58t-58.5 140.5t58.5 141t141 58.5t140.5 -58.5t58 -141t-58 -140.5t-140.5 -58z" />
    <glyph glyph-name="uniE651" unicode="&#xe651;" horiz-adv-x="1025" 
d="M513 -69v0q-6 0 -10 2q-49 21 -110 62.5t-124.5 101t-117 125t-88.5 142.5t-37 147q-5 151 81 239q17 18 38 32.5t44 24t47.5 15t49.5 5.5q13 0 25.5 -1.5t24.5 -4.5q107 -23 177 -130q27 42 71 79.5t105 50.5q24 6 50 6q50 0 97 -20t83 -57q85 -88 80 -239
q-2 -70 -37 -146.5t-88 -142.5t-117 -125.5t-124.5 -100.5t-109.5 -63q-5 -2 -10 -2zM286 784q-42 0 -81 -16.5t-68 -46.5q-73 -76 -69 -209q2 -61 33.5 -130.5t80.5 -130.5t108 -117t116.5 -96.5t106.5 -62.5q34 15 73.5 41t82 60t83 73.5t77.5 84.5t65 90.5t45 94.5t18 93
q2 65 -15.5 118.5t-53.5 90.5q-61 63 -149 63q-11 0 -21 -1t-20 -3q-38 -8 -70 -29t-52.5 -46.5t-29.5 -39.5t-14 -25q0 -2 -2 -4q-3 -5 -7.5 -7.5t-10 -2.5t-10 2.5t-7.5 7.5q-1 1 -1.5 2t-0.5 2q-5 11 -14.5 25t-29.5 39.5t-52 46.5t-70 29q-6 1 -13 2t-14 1.5t-14 0.5z
" />
    <glyph glyph-name="uniE652" unicode="&#xe652;" horiz-adv-x="1025" 
d="M919 750q-12 12 -25.5 22.5t-27.5 19t-29.5 15t-31.5 11t-32.5 7t-33.5 2.5q-9 0 -17 -1t-16.5 -2t-16.5 -3q-107 -23 -176 -130q-70 107 -177 130q-24 6 -50 6q-33 0 -65.5 -9t-61.5 -26.5t-52 -41.5q-86 -88 -81 -239q2 -70 37 -147t88.5 -142.5t117 -125t124.5 -101
t110 -62.5q4 -2 10 -2v0q5 0 10 2q49 22 109.5 63t124.5 100.5t117 125.5t88 142.5t37 146.5q5 151 -80 239z" />
    <glyph glyph-name="uniE653" unicode="&#xe653;" 
d="M781 -91q-5 0 -11 1t-11.5 2.5t-11.5 4.5l-233 115l-236 -115q-17 -9 -38.5 -7.5t-37.5 13.5q-17 12 -24.5 31.5t-4.5 39.5l49 250l-186 171q-15 15 -20 35.5t1 39.5q7 20 22.5 33.5t36.5 16.5l257 47l115 232q10 18 27.5 29t38.5 11t38.5 -11t26.5 -30l116 -231l258 -46
q20 -3 35.5 -16t22.5 -33q6 -20 1 -40.5t-20 -34.5l-186 -173l47 -249q4 -21 -4 -40.5t-25 -31.5q-9 -7 -20 -10.5t-23 -3.5zM514 89l256 -126q13 -7 24 1t9 22l-52 276l206 192q4 4 5.5 10t-0.5 12t-7 10t-11 5l-284 50l-127 255q-5 11 -19 11t-20 -11l-126 -255l-284 -52
q-14 -2 -18 -15t6 -22l205 -190l-54 -277q-2 -13 9 -21q5 -4 11.5 -4.5t11.5 2.5z" />
    <glyph glyph-name="uniE654" unicode="&#xe654;" 
d="M1011 492q-7 20 -22.5 33t-35.5 16l-258 46l-116 231q-4 10 -11 17.5t-15.5 13t-18.5 8t-20 2.5q-14 0 -26.5 -4.5t-22.5 -14t-17 -21.5l-115 -232l-257 -47q-21 -3 -36.5 -16.5t-22.5 -33.5q-4 -13 -3 -26.5t6.5 -26t15.5 -22.5l186 -171l-49 -250q-3 -20 4.5 -39.5
t24.5 -31.5q16 -12 37.5 -13.5t38.5 7.5l236 115l233 -115q8 -4 17 -6t17 -2q24 0 43 14q17 12 25 31.5t4 40.5l-47 249l186 173q15 14 20 34.5t-1 40.5z" />
    <glyph glyph-name="uniE655" unicode="&#xe655;" 
d="M760 446l-164 30l-74 152q-3 7 -11 7t-11 -7l-74 -152l-164 -31q-2 0 -4 -1l-2 -2q-2 -1 -3 -2.5t-1 -3.5q-3 -8 3 -13l119 -114l-31 -166q0 -7 5 -12q6 -5 13 -1l150 75l148 -75q8 -4 14.5 1t4.5 13l-30 165l119 115q6 5 3.5 13t-10.5 9zM511 890q-210 0 -359 -149
t-149 -359t149 -359t359 -149t359 149t149 359t-149 359t-359 149zM788 402l-108 -104l27 -149q5 -27 -17 -43q-11 -8 -24 -8q-11 0 -20 5l-135 68l-136 -69q-23 -12 -45 4q-21 16 -16 43l28 149l-107 102q-6 6 -9.5 14t-4 16t2.5 16q3 11 12.5 19t21.5 10l148 28l67 139
q12 24 38 24t38 -24l67 -139l149 -27q12 -2 21 -10t12 -20q4 -11 1 -23.5t-11 -20.5z" />
    <glyph glyph-name="uniE656" unicode="&#xe656;" horiz-adv-x="1025" 
d="M517.5 621q134.5 0 245.5 -72t167 -190h72q-59 146 -190.5 236.5t-294 90.5t-294 -90.5t-190.5 -236.5h72q56 118 167 190t245.5 72zM517.5 99q-134.5 0 -245.5 72t-167 189h-72q65 -160 213 -250q125 -76 271 -76q163 0 294.5 90t190.5 236h-72q-56 -117 -167 -189
t-245.5 -72zM343 359q0 -72 51 -123t123.5 -51t123.5 51t51 123.5t-51 123.5t-124 51q-35 0 -67.5 -14t-55.5 -37.5t-37 -55.5t-14 -68zM626 359q0 -45 -31.5 -77t-77.5 -32q-29 0 -54 15t-39.5 40t-14.5 54q0 22 8.5 42.5t23 35t34.5 23t42 8.5q46 0 77.5 -32t31.5 -77z
" />
    <glyph glyph-name="uniE657" unicode="&#xe657;" 
d="M513 772q-114 0 -217.5 -46.5t-179 -129t-114.5 -189.5q60 -162 199 -263.5t311.5 -101.5t312 101.5t199.5 263.5q-60 163 -199.5 264t-311.5 101zM512.5 164q-97.5 0 -165 70.5t-67.5 173t67.5 173t165 70.5t165 -70.5t67.5 -173t-67.5 -173t-165 -70.5zM513 553
q-60 0 -100 -42t-40 -104t40 -104t99.5 -42t99.5 42t40 104q0 41 -18 74.5t-50 52.5t-71 19z" />
    <glyph glyph-name="uniE658" unicode="&#xe658;" 
d="M745 550h-468v-1q-7 0 -12.5 -2t-8.5 -6t-3 -8v-76q0 -7 9 -9q31 -7 51 -25q21 -18 21 -41t-21 -41q-20 -18 -51 -25q-9 -2 -9 -9v-76q0 -7 7 -12t17 -5h468q7 0 12.5 2.5t8.5 6.5t3 8v76q0 7 -9 9q-31 7 -51 25q-21 18 -21 41q0 11 5.5 21.5t15.5 19.5q6 6 14 11
t17.5 8.5t19.5 5.5q9 2 9 9v76q0 7 -7 12t-17 5zM580 351q9 0 9 -9t-9 -9h-61v-49q0 -9 -9 -9t-9 9v49h-59q-9 0 -9 9t9 9h59v36h-59q-9 0 -9 9t9 9h46l-51 52q-7 6 -0.5 12.5t13.5 0.5l61 -62l62 62q6 6 12.5 -0.5t-0.5 -12.5l-51 -52h46q9 0 9 -9t-9 -9h-61v-36h61z
M511 890q-210 0 -359 -149t-149 -359t149 -359t359 -149t359 149t149 359t-149 359t-359 149zM796 457q0 -9 -7.5 -16.5t-20.5 -9.5q-11 -3 -21 -7.5t-17 -11.5q-7 -6 -11 -14t-4 -16q0 -17 15 -30q7 -7 17 -11.5t21 -7.5q5 -1 9.5 -2.5t8 -4t6 -5.5t3.5 -6.5t1 -7.5v-76
q0 -14 -15 -24.5t-36 -10.5h-468q-21 0 -36 10.5t-15 24.5v76q0 4 1 7.5t3.5 6.5t6 5.5t8 4t9.5 2.5q23 5 38 18.5t15 30.5t-15 30.5t-38 18.5q-13 2 -20.5 9.5t-7.5 16.5v76q0 7 4 13.5t11 11t16.5 7.5t19.5 3h468q8 0 16 -2t14.5 -5t11 -7.5t7 -9.5t2.5 -11v-76z" />
    <glyph glyph-name="uniE659" unicode="&#xe659;" 
d="M516 396l241 191h-479zM511 890q-210 0 -359 -149t-149 -359t149 -359t359 -149t359 149t149 359t-149 359t-359 149zM802 407h-29v155l-253 -204q-4 -3 -6 -3t-5 1t-5 2l-253 201v-378h522v141h29v-141q0 -12 -8.5 -20.5t-20.5 -8.5h-522q-12 0 -20.5 8.5t-8.5 20.5v406
q0 6 2 11.5t6 9.5t9.5 6t11.5 2h522q8 0 14.5 -4t10.5 -10.5t4 -14.5v-180z" />
    <glyph glyph-name="uniE65A" unicode="&#xe65a;" 
d="M698 567zM511 890q-210 0 -359 -149t-149 -359t149 -359t359 -149t359 149t149 359t-149 359t-359 149zM706 177q-81 -83 -195 -83t-194.5 82.5t-80 199.5t81.5 200q75 78 182.5 82.5t188.5 -65.5l-19 60q-1 6 1 11.5t8 6.5l5 3q3 0 7 -1t6.5 -3.5t3.5 -6.5l31 -99v-1
l2 -7q2 -5 -1 -10q-1 -2 -2 -3t-3 -2t-3 -2l-7 -1h-1l-101 -24q-6 -1 -11 2t-7 8l-1 6q-1 5 2.5 10t9.5 7l60 13h-1q-70 63 -163.5 59.5t-160.5 -71.5q-69 -71 -69.5 -172t69 -172t168 -71t167.5 71q40 42 58 96t10 111v5q0 3 1 5.5t2.5 4.5t3.5 3.5t4.5 2.5t4.5 1
q5 1 10 -1t8 -6t4 -9q6 -44 -1.5 -87.5t-27 -82t-50.5 -70.5z" />
    <glyph glyph-name="uniE65B" unicode="&#xe65b;" 
d="M923 430q-2 11 -11.5 18t-21 5.5t-18.5 -11t-6 -20.5q12 -80 -14.5 -156t-87.5 -133q-68 -66 -160.5 -89.5t-185 0t-160.5 88.5t-92.5 153t0.5 175.5t93 153.5q100 95 241.5 100t247.5 -83v0l-90 -19q-9 -2 -14.5 -9t-3.5 -15l2 -7q2 -8 10 -12.5t16 -2.5l154 33v0l10 2
q4 1 7.5 3.5t5.5 6.5q4 7 2 15l-3 9v1l-47 139q-3 8 -10.5 12.5t-15.5 2.5l-8 -4q-5 -1 -8.5 -5t-4.5 -9.5t1 -10.5l28 -84q-60 48 -134.5 71.5t-149 20t-147.5 -33t-129 -83.5q-122 -116 -122.5 -280t120.5 -279q80 -76 187 -102.5t214 0.5t187 103q70 67 101 155t17 181z
M792 640v0v0z" />
    <glyph glyph-name="uniE65C" unicode="&#xe65c;" 
d="M511 890q-210 0 -359 -149t-149 -359t149 -359t359 -149t359 149t149 359t-149 359t-359 149zM766 175q0 -8 -2 -14.5t-5.5 -12.5t-8 -11t-10.5 -8.5t-13 -5.5t-14 -2h-426q-22 0 -37.5 16t-15.5 38v274v93q0 22 15.5 38t37.5 16h200q6 0 10 -4.5t4 -10t-4 -10t-10 -4.5
h-197q-3 0 -6 -0.5t-6 -2t-5.5 -3.5t-4.5 -4.5t-3 -5t-2 -5.5t-1 -7v-90v-272q0 -11 8 -19.5t20 -8.5h152h268q12 0 20 8.5t8 19.5v146v0q0 6 4 10t10 4t10 -4t4 -10v-148zM790 503l-136 -137v1q-4 -5 -10 -5q-4 0 -7.5 2t-5.5 5.5t-2 7.5q0 6 4 10l102 103h-112
q-50 -6 -83 -23t-52 -49t-27.5 -69.5t-13.5 -96.5q0 -6 -4.5 -10t-10.5 -4t-10.5 4t-4.5 10q5 63 16 107t34 79t61.5 54.5t94.5 26.5h112l-102 102q-1 2 -2 3.5t-1.5 3.5t-0.5 4q0 6 4 10.5t10.5 4.5t10.5 -5l136 -136v-3z" />
    <glyph glyph-name="uniE65D" unicode="&#xe65d;" 
d="M513 357q-74 0 -137 36t-99.5 98.5t-36.5 135.5q0 111 80 190t193 79t193 -79t80 -190q0 -73 -36.5 -135.5t-99.5 -98.5t-137 -36zM513 858q-97 0 -166 -68t-69 -163.5t69 -163.5t166 -68t166 68t69 164q0 62 -31.5 115.5t-86 84.5t-117.5 31zM607 -128h-189h-69
q-23 0 -62.5 1.5t-59.5 4.5t-48.5 8t-42.5 13.5t-29.5 20t-21.5 27.5t-6 37v18q0 91 45.5 168t124 122t169.5 45h189q92 0 170 -45t123.5 -122t45.5 -168v-18q0 -21 -6.5 -37t-22 -27.5t-30 -20t-43.5 -13.5t-49 -8t-59 -4.5t-62 -1.5h-67zM418 298q-124 0 -212 -86.5
t-88 -209.5v-18q0 -13 4.5 -23.5t16 -18t24.5 -13t35.5 -9t42.5 -5.5t52 -3t58.5 -1.5t66.5 -0.5h189q77 0 115.5 1.5t90 7.5t73.5 22t22 43v18q0 123 -88.5 209.5t-212.5 86.5h-189z" />
    <glyph glyph-name="uniE65E" unicode="&#xe65e;" 
d="M478 -25q-9 0 -15.5 6.5t-6.5 15.5t6.5 15.5t15.5 6.5q112 0 206.5 55t150 150t55.5 207q0 67 -21 129.5t-59 113t-88.5 89t-113.5 59t-130 20.5q-84 0 -160 -32.5t-131.5 -87.5t-88 -131.5t-32.5 -159.5q0 -86 33.5 -163.5t96.5 -136.5q6 -7 6.5 -16t-6 -15.5t-15.5 -7
t-16 6.5q-67 63 -104 148q-13 29 -21.5 59t-13 61.5t-4.5 63.5q0 92 36 177q17 41 41.5 77t56.5 68q63 63 145 98q42 17 86.5 26t90.5 9t90.5 -9t86.5 -26q82 -35 145 -98t98 -145q36 -85 36 -177q0 -47 -9 -91.5t-27 -86.5q-35 -82 -98 -145t-145 -97q-85 -36 -177 -36z
M998 -114q-9 0 -15 6l-206 206q-6 6 -6 15t6 15.5t15.5 6.5t15.5 -6l206 -206q3 -3 4.5 -7t1.5 -8.5t-1.5 -8.5t-4.5 -7q-7 -6 -16 -6z" />
    <glyph glyph-name="uniE65F" unicode="&#xe65f;" 
d="M769 415q-2 1 -13.5 3t-27 4.5t-18.5 2.5q-15 3 -23 23l-7 15q-7 19 4 35l5 8q3 4 7 9l6 10q4 5 7 9.5t5.5 7.5t2.5 4q2 3 2 5t-2 5q-1 1 -4.5 4t-8 7.5t-8.5 9t-8 8t-5 4.5q-3 4 -6 4t-6 -2q-1 0 -5 -3t-9 -7t-11.5 -8.5t-12 -8t-10 -6.5t-4.5 -4q-4 -2 -12 -3t-14 2
l-21 9q-6 2 -11.5 9.5t-6.5 13.5q-1 3 -2.5 13t-3 19.5t-3.5 18.5l-2 10q-1 7 -8 7h-48q-7 0 -8 -8q-1 -2 -9 -50v-5q-4 -21 -20 -28q-8 -3 -11.5 -4.5t-7.5 -3.5q-18 -7 -34 4q-6 5 -45 33q-6 5 -12 -1q-2 -1 -9 -8t-15 -15.5t-9 -9.5q-4 -3 -4 -6.5t3 -7.5q2 -2 6 -7.5
t8 -11.5t9.5 -13.5t7.5 -11.5q4 -5 6 -11t2 -12t-2 -12l-3 -6q-1 -2 -1 -3t-1.5 -3.5t-2.5 -6.5q-2 -5 -5 -8.5t-7 -6t-8.5 -4t-9.5 -2.5q-8 -1 -29 -5l-22 -4q-2 0 -4 -1t-3.5 -3t-1.5 -5v-47q0 -4 2 -6.5t6 -3.5l54 -9q6 -1 10.5 -3t9 -6t7.5 -10q3 -8 4 -12q2 -3 4 -9
q8 -18 -7 -38q-3 -5 -9 -13.5t-12.5 -17.5t-6.5 -10q-6 -8 0 -14q1 -2 9 -10l15 -15l8 -8q5 -6 13 -1q2 2 11.5 8.5t21 15t13.5 10.5q15 11 35 2q7 -2 10 -3.5t5 -2t4 -1.5q14 -6 18 -29q6 -44 9 -53q2 -8 10 -8h45q8 0 9 8q1 1 9 49q2 13 7 21.5t16 13.5q10 3 10.5 3.5
t5.5 2.5l4 2h4q2 1 4 1h5q2 0 4 -0.5t4 -1.5t4.5 -2.5t4.5 -2.5q6 -5 13 -10l14 -9q6 -4 11.5 -8t6.5 -5q7 -5 13 0q2 2 9 9.5t15 16t9 8.5q5 5 1 12q-1 2 -8.5 12.5t-16.5 23.5t-10 14q-9 12 -2 30q0 2 1 4l6 15q7 17 27 20q5 1 14.5 2.5t18 3t16.5 3.5l8 1q6 2 6 8v13v24
v12q-2 7 -8 9zM511 244q-56 0 -96 40.5t-40 97.5q0 38 18 70t49.5 50.5t68.5 18.5q56 0 96 -40.5t40 -98.5q0 -37 -18 -69t-49.5 -50.5t-68.5 -18.5zM511 502q-49 0 -83.5 -35t-34.5 -85q0 -49 34.5 -84.5t83.5 -35.5t83.5 35t34.5 85q0 25 -9.5 47t-25 38t-37.5 25.5
t-46 9.5zM511 890q-210 0 -359 -149t-149 -359t149 -359t359 -149t359 149t149 359t-149 359t-359 149zM795 359q0 -11 -5.5 -18.5t-15.5 -8.5q-52 -9 -57 -10q-9 -2 -12 -9q-7 -14 -8 -18q-2 -3 -2 -8t3 -9l1 -1q5 -8 10 -14.5t12.5 -18t10.5 -14.5q12 -20 -3 -35l-34 -34
q-7 -7 -17 -8t-18 5q-38 27 -43 31q-10 8 -19 4q-14 -6 -18 -8q-3 -1 -4.5 -2.5t-3 -4t-1.5 -5.5v-2q-1 -4 -1.5 -7t-1.5 -9.5t-2 -11.5t-2 -10.5t-1.5 -10t-1.5 -7.5q-4 -22 -31 -22h-41q-24 1 -28 24q0 1 -1 6.5t-1.5 9t-1.5 9t-1.5 9t-1.5 8t-1.5 7.5t-0.5 5
q-3 12 -11 16q-2 0 -4 1t-3.5 1.5t-3 1.5t-2.5 1.5t-2 0.5q-10 4 -19 -2q-5 -3 -6.5 -4.5t-8.5 -6.5t-11 -8t-9.5 -7t-8.5 -6q-20 -14 -36 2q-27 27 -33.5 34t-7.5 16t4 18q25 36 31 45q6 7 6 11.5t-2 10.5q-1 0 -7 15q-3 9 -14 11q-1 0 -3.5 0.5t-4 0.5t-4.5 0.5t-5 1
t-5 1.5h-6l-6 2h-6q-3 1 -5.5 1.5t-5.5 0.5q-26 5 -26 29v45q0 7 2.5 13t7.5 10t11 6q5 1 25.5 4.5t26.5 4.5q15 3 19 11q7 16 8 20q2 6 -6 18q-20 29 -28 40q-16 23 0 38q28 28 34 35q15 16 34 3q1 -2 5 -4.5t6.5 -4.5t6.5 -5t7 -5t6.5 -4t6 -4t4.5 -4l9 -4q3 -2 5.5 -2
t6.5 1l20 9l5 5q2 3 3 7q8 50 9 59q2 7 9 13.5t15 6.5h50q9 0 16.5 -6t9.5 -14q9 -55 9 -57q2 -10 7 -14q2 -1 4.5 -2t8.5 -3.5t9 -4.5l14 2q5 3 12 8.5t20 15t17 11.5q2 2 4.5 3t5.5 1h5q3 0 5.5 -0.5t4.5 -1.5l4 -2q0 -1 2 -2l12 -12q5 -5 12.5 -13t11.5 -12
q7 -6 7.5 -16.5t-4.5 -16.5q-28 -40 -32 -46q-3 -5 -4 -9.5t1 -8.5v-2q2 -3 2.5 -5t2 -5t2 -5.5t1.5 -2.5q1 -2 4 -5t6 -3q1 0 13.5 -2.5t26 -4.5t18.5 -3q10 -1 16 -9t6 -19v-46z" />
    <glyph glyph-name="uniE660" unicode="&#xe660;" 
d="M482 -115q-10 0 -15 8q-8 12 -22.5 31.5t-49.5 59.5t-60 59q-9 7 -37 24q-107 68 -160 127q-95 106 -93 241q0 21 2.5 42t7 41.5t11.5 41t16 39.5q18 37 43 70.5t57 62.5q65 59 148 90t174 31h14q6 0 12 -1q111 -5 212 -52t168 -124q5 -6 9.5 -11.5t9 -11.5t8.5 -11.5
t8 -11.5t7.5 -12t7 -12.5t6.5 -12.5t5.5 -12t5.5 -12.5t5 -13.5q25 -67 18 -137q-7 -81 -47 -152q-37 -64 -98 -115q-55 -46 -123 -75q-65 -28 -129 -34q-67 -8 -104 -9v-129q0 -6 -3 -11t-9 -7q-3 -1 -5 -1zM504 817q-113 0 -210.5 -51t-154.5 -139.5t-59 -192.5
q0 -30 5.5 -58.5t14 -52t23 -47.5t27.5 -41t33.5 -36.5t34.5 -31.5t36 -27.5t33 -22.5t30 -19q10 -7 15.5 -10t12.5 -8t11 -8q18 -13 39 -34.5t36.5 -40t31.5 -39.5v93q0 9 7 14q2 3 6 4t8 0q25 -1 116 8q35 4 74 16.5t78.5 32.5t75.5 49.5t65 65.5t48 82.5t24 97.5
q11 124 -82 231q-42 48 -98 83.5t-122 56.5t-134 25h-25zM285.5 382q-16.5 0 -30.5 8.5t-22.5 22.5t-8.5 30.5t8.5 30.5t22.5 22t31 8q25 0 42.5 -17.5t17.5 -42.5q0 -17 -8 -31t-22 -22.5t-30.5 -8.5zM285.5 468q-5.5 0 -10 -1.5t-8 -5t-5.5 -8t-2 -10t2 -10t5.5 -8t8 -5.5
t10 -2t10 2t8 5.5t5 8t1.5 10t-1.5 10t-5 8t-8 5t-10 1.5zM540 382q-16 0 -30 8.5t-22 22.5t-8 31q0 25 17.5 42.5t42.5 17.5q13 0 24 -4.5t19.5 -13t13.5 -19.5t5 -23q0 -26 -18 -44t-44 -18zM540 468q-5 0 -9.5 -1.5t-8 -5t-5 -8t-1.5 -9.5q0 -11 7 -18.5t17.5 -7.5
t18 7.5t7.5 18t-7.5 17.5t-18.5 7zM771.5 382q-25.5 0 -43.5 18t-18 43.5t18 43t43 17.5q13 0 24 -4.5t19.5 -13t13 -19.5t4.5 -23q0 -26 -17.5 -44t-43 -18zM771 468q-5 0 -9.5 -1.5t-8 -5t-5.5 -8t-2 -9.5q0 -11 7.5 -18.5t18 -7.5t17.5 7.5t7 18t-7 17.5t-18 7z" />
  </font>
</defs>
</svg>
